<svg width="41" height="40" viewBox="0 0 41 40" fill="none" xmlns="http://www.w3.org/2000/svg">
<rect x="0.5" width="40" height="40" rx="20" fill="#C3F53C"/>
<path d="M16.756 27V10.2H23.668C25.156 10.2 26.428 10.44 27.484 10.92C28.556 11.4 29.38 12.088 29.956 12.984C30.532 13.88 30.82 14.944 30.82 16.176C30.82 17.408 30.532 18.472 29.956 19.368C29.38 20.248 28.556 20.928 27.484 21.408C26.428 21.872 25.156 22.104 23.668 22.104H18.484L19.876 20.688V27H16.756ZM27.748 27L23.5 20.904H26.836L31.108 27H27.748ZM19.876 21.024L18.484 19.536H23.524C24.9 19.536 25.932 19.24 26.62 18.648C27.324 18.056 27.676 17.232 27.676 16.176C27.676 15.104 27.324 14.28 26.62 13.704C25.932 13.128 24.9 12.84 23.524 12.84H18.484L19.876 11.304V21.024Z" fill="#002C15"/>
<path d="M18.532 31.24C17.252 31.24 16.06 31.032 14.956 30.616C13.868 30.184 12.916 29.584 12.1 28.816C11.3 28.032 10.676 27.112 10.228 26.056C9.78 25 9.556 23.848 9.556 22.6C9.556 21.352 9.78 20.2 10.228 19.144C10.676 18.088 11.308 17.176 12.124 16.408C12.94 15.624 13.892 15.024 14.98 14.608C16.068 14.176 17.26 13.96 18.556 13.96C19.932 13.96 21.188 14.2 22.324 14.68C23.46 15.144 24.42 15.84 25.204 16.768L23.188 18.664C22.58 18.008 21.9 17.52 21.148 17.2C20.396 16.864 19.58 16.696 18.7 16.696C17.82 16.696 17.012 16.84 16.276 17.128C15.556 17.416 14.924 17.824 14.38 18.352C13.852 18.88 13.436 19.504 13.132 20.224C12.844 20.944 12.7 21.736 12.7 22.6C12.7 23.464 12.844 24.256 13.132 24.976C13.436 25.696 13.852 26.32 14.38 26.848C14.924 27.376 15.556 27.784 16.276 28.072C17.012 28.36 17.82 28.504 18.7 28.504C19.58 28.504 20.396 28.344 21.148 28.024C21.9 27.688 22.58 27.184 23.188 26.512L25.204 28.432C24.42 29.344 23.46 30.04 22.324 30.52C21.188 31 19.924 31.24 18.532 31.24Z" fill="#002C15"/>
</svg>
