<svg width="823" height="176" viewBox="0 0 823 176" fill="none" xmlns="http://www.w3.org/2000/svg">
<path d="M92.9428 175.36C79.6628 175.36 67.3428 173.28 55.9828 169.12C44.7828 164.8 35.0228 158.72 26.7028 150.88C18.5428 143.04 12.1428 133.84 7.50281 123.28C2.86281 112.56 0.542813 100.8 0.542813 88C0.542813 75.2 2.86281 63.52 7.50281 52.96C12.1428 42.24 18.5428 32.96 26.7028 25.12C35.0228 17.28 44.7828 11.28 55.9828 7.11999C67.3428 2.79999 79.6628 0.639989 92.9428 0.639989C108.463 0.639989 122.303 3.35999 134.463 8.8C146.783 14.24 157.023 22.08 165.183 32.32L134.943 59.68C129.503 53.28 123.503 48.4 116.943 45.04C110.543 41.68 103.343 40 95.3428 40C88.4628 40 82.1428 41.12 76.3828 43.36C70.6228 45.6 65.6628 48.88 61.5028 53.2C57.5028 57.36 54.3028 62.4 51.9028 68.32C49.6628 74.24 48.5428 80.8 48.5428 88C48.5428 95.2 49.6628 101.76 51.9028 107.68C54.3028 113.6 57.5028 118.72 61.5028 123.04C65.6628 127.2 70.6228 130.4 76.3828 132.64C82.1428 134.88 88.4628 136 95.3428 136C103.343 136 110.543 134.32 116.943 130.96C123.503 127.6 129.503 122.72 134.943 116.32L165.183 143.68C157.023 153.76 146.783 161.6 134.463 167.2C122.303 172.64 108.463 175.36 92.9428 175.36ZM186.37 172V3.99999H263.17C278.53 3.99999 291.73 6.47999 302.77 11.44C313.97 16.4 322.61 23.6 328.69 33.04C334.77 42.32 337.81 53.36 337.81 66.16C337.81 78.8 334.77 89.76 328.69 99.04C322.61 108.16 313.97 115.2 302.77 120.16C291.73 124.96 278.53 127.36 263.17 127.36H212.77L233.89 107.44V172H186.37ZM290.29 172L248.53 110.8H299.17L341.17 172H290.29ZM233.89 112.48L212.77 90.64H260.29C270.21 90.64 277.57 88.48 282.37 84.16C287.33 79.84 289.81 73.84 289.81 66.16C289.81 58.32 287.33 52.24 282.37 47.92C277.57 43.6 270.21 41.44 260.29 41.44H212.77L233.89 19.6V112.48ZM364.027 172V3.99999H440.827C456.187 3.99999 469.387 6.47999 480.427 11.44C491.627 16.4 500.267 23.6 506.347 33.04C512.427 42.32 515.467 53.36 515.467 66.16C515.467 78.8 512.427 89.76 506.347 99.04C500.267 108.32 491.627 115.52 480.427 120.64C469.387 125.6 456.187 128.08 440.827 128.08H390.427L411.547 107.44V172H364.027ZM411.547 112.48L390.427 90.64H437.947C447.867 90.64 455.227 88.48 460.027 84.16C464.987 79.84 467.467 73.84 467.467 66.16C467.467 58.32 464.987 52.24 460.027 47.92C455.227 43.6 447.867 41.44 437.947 41.44H390.427L411.547 19.6V112.48ZM538.636 172V3.99999H586.156V134.32H666.316V172H538.636ZM710.491 172V100.96L721.531 129.52L646.411 3.99999H696.571L750.811 94.96H721.771L776.251 3.99999H822.331L747.451 129.52L758.011 100.96V172H710.491Z" fill="#244424"/>
</svg>
