<svg width="98" height="22" viewBox="0 0 98 22" fill="none" xmlns="http://www.w3.org/2000/svg">
<path d="M11.3339 21.3954C9.7711 21.3954 8.32129 21.1506 6.98444 20.6611C5.66643 20.1527 4.51787 19.4372 3.53878 18.5146C2.57851 17.592 1.82536 16.5093 1.27932 15.2666C0.733286 14.0051 0.460268 12.6212 0.460268 11.1149C0.460268 9.60858 0.733286 8.23408 1.27932 6.99138C1.82536 5.72985 2.57851 4.63778 3.53878 3.71517C4.51787 2.79256 5.66643 2.08648 6.98444 1.59693C8.32129 1.08856 9.7711 0.834367 11.3339 0.834367C13.1603 0.834367 14.789 1.15446 16.22 1.79464C17.6698 2.43481 18.8748 3.35743 19.8351 4.56247L16.2765 7.78219C15.6363 7.02904 14.9302 6.45476 14.1582 6.05936C13.4051 5.66395 12.5578 5.46625 11.6163 5.46625C10.8067 5.46625 10.063 5.59805 9.38511 5.86165C8.70728 6.12526 8.12359 6.51125 7.63404 7.01962C7.16332 7.50917 6.78674 8.10228 6.50431 8.79895C6.24071 9.49561 6.1089 10.2676 6.1089 11.1149C6.1089 11.9622 6.24071 12.7342 6.50431 13.4308C6.78674 14.1275 7.16332 14.73 7.63404 15.2384C8.12359 15.7279 8.70728 16.1045 9.38511 16.3681C10.063 16.6317 10.8067 16.7635 11.6163 16.7635C12.5578 16.7635 13.4051 16.5658 14.1582 16.1704C14.9302 15.775 15.6363 15.2007 16.2765 14.4476L19.8351 17.6673C18.8748 18.8535 17.6698 19.7761 16.22 20.4351C14.789 21.0753 13.1603 21.3954 11.3339 21.3954ZM22.3284 21V1.22977H31.3663C33.1738 1.22977 34.7272 1.52162 36.0264 2.10531C37.3444 2.689 38.3611 3.5363 39.0766 4.6472C39.7921 5.73927 40.1499 7.03845 40.1499 8.54476C40.1499 10.0322 39.7921 11.322 39.0766 12.4141C38.3611 13.4873 37.3444 14.3158 36.0264 14.8995C34.7272 15.4643 33.1738 15.7468 31.3663 15.7468H25.4352L27.9206 13.4026V21H22.3284ZM34.5577 21L29.6434 13.798H35.6027L40.5453 21H34.5577ZM27.9206 13.9957L25.4352 11.4256H31.0273C32.1947 11.4256 33.0608 11.1714 33.6257 10.663C34.2094 10.1546 34.5012 9.44854 34.5012 8.54476C34.5012 7.62215 34.2094 6.90665 33.6257 6.39827C33.0608 5.8899 32.1947 5.63571 31.0273 5.63571H25.4352L27.9206 3.06558V13.9957ZM43.235 21V1.22977H52.2728C54.0804 1.22977 55.6338 1.52162 56.933 2.10531C58.251 2.689 59.2677 3.5363 59.9832 4.6472C60.6987 5.73927 61.0565 7.03845 61.0565 8.54476C61.0565 10.0322 60.6987 11.322 59.9832 12.4141C59.2677 13.5061 58.251 14.3534 56.933 14.956C55.6338 15.5397 54.0804 15.8315 52.2728 15.8315H46.3418L48.8272 13.4026V21H43.235ZM48.8272 13.9957L46.3418 11.4256H51.9339C53.1013 11.4256 53.9674 11.1714 54.5323 10.663C55.116 10.1546 55.4078 9.44854 55.4078 8.54476C55.4078 7.62215 55.116 6.90665 54.5323 6.39827C53.9674 5.8899 53.1013 5.63571 51.9339 5.63571H46.3418L48.8272 3.06558V13.9957ZM63.783 21V1.22977H69.3752V16.5658H78.8084V21H63.783ZM84.0069 21V12.64L85.3061 16.001L76.466 1.22977H82.3688L88.7518 11.9339H85.3343L91.7455 1.22977H97.1682L88.3564 16.001L89.5991 12.64V21H84.0069Z" fill="#C3F53D"/>
</svg>
