<svg width="823" height="176" viewBox="0 0 823 176" fill="none" xmlns="http://www.w3.org/2000/svg">
<path d="M55.9828 169.12L55.8029 169.587L55.8109 169.59L55.9828 169.12ZM26.7028 150.88L26.3564 151.241L26.3599 151.244L26.7028 150.88ZM7.50282 123.28L7.04395 123.479L7.04505 123.481L7.50282 123.28ZM7.50282 52.96L7.96058 53.1611L7.96168 53.1586L7.50282 52.96ZM26.7028 25.12L26.3599 24.7561L26.3564 24.7594L26.7028 25.12ZM55.9828 7.12L56.1569 7.58871L56.1605 7.58734L55.9828 7.12ZM134.463 8.8L134.259 9.25642L134.261 9.25739L134.463 8.8ZM165.183 32.32L165.518 32.6908C165.714 32.5136 165.738 32.2149 165.574 32.0084L165.183 32.32ZM134.943 59.68L134.562 60.0038C134.649 60.1069 134.775 60.1701 134.91 60.1789C135.045 60.1878 135.178 60.1415 135.278 60.0508L134.943 59.68ZM116.943 45.04L116.71 45.4827L116.715 45.485L116.943 45.04ZM76.3828 43.36L76.564 43.826L76.3828 43.36ZM61.5028 53.2L61.1427 52.8532L61.1424 52.8534L61.5028 53.2ZM51.9028 68.32L51.4393 68.1321L51.4352 68.1431L51.9028 68.32ZM51.9028 107.68L51.435 107.857L51.4394 107.868L51.9028 107.68ZM61.5028 123.04L61.1359 123.38C61.1403 123.384 61.1447 123.389 61.1493 123.394L61.5028 123.04ZM76.3828 132.64L76.564 132.174L76.3828 132.64ZM116.943 130.96L116.715 130.515L116.71 130.517L116.943 130.96ZM134.943 116.32L135.278 115.949C135.178 115.858 135.045 115.812 134.91 115.821C134.775 115.83 134.649 115.893 134.562 115.996L134.943 116.32ZM165.183 143.68L165.571 143.995C165.738 143.788 165.715 143.487 165.518 143.309L165.183 143.68ZM134.463 167.2L134.667 167.656L134.67 167.655L134.463 167.2ZM92.9428 175.36V174.86C79.7157 174.86 67.4545 172.788 56.1548 168.65L55.9828 169.12L55.8109 169.59C67.2311 173.772 79.6099 175.86 92.9428 175.86V175.36ZM55.9828 169.12L56.1628 168.653C45.0201 164.356 35.3162 158.309 27.0457 150.516L26.7028 150.88L26.3599 151.244C34.7294 159.131 44.5455 165.244 55.8029 169.587L55.9828 169.12ZM26.7028 150.88L27.0492 150.519C18.9373 142.726 12.5748 133.58 7.96057 123.079L7.50282 123.28L7.04505 123.481C11.7109 134.1 18.1483 143.354 26.3564 151.241L26.7028 150.88ZM7.50282 123.28L7.96168 123.081C3.35131 112.43 1.04282 100.738 1.04282 88H0.542816H0.0428162C0.0428162 100.862 2.37431 112.69 7.04395 123.479L7.50282 123.28ZM0.542816 88H1.04282C1.04282 75.2616 3.35134 63.6511 7.96057 53.1611L7.50282 52.96L7.04505 52.7589C2.37428 63.3889 0.0428162 75.1384 0.0428162 88H0.542816ZM7.50282 52.96L7.96168 53.1586C12.5762 42.4975 18.9386 33.2731 27.0492 25.4805L26.7028 25.12L26.3564 24.7594C18.147 32.6469 11.7094 41.9825 7.04395 52.7614L7.50282 52.96ZM26.7028 25.12L27.0457 25.4839C35.3148 17.6918 45.0167 11.7265 56.1569 7.58871L55.9828 7.12L55.8087 6.65128C44.5489 10.8335 34.7308 16.8682 26.3599 24.7561L26.7028 25.12ZM55.9828 7.12L56.1605 7.58734C67.4587 3.29084 79.7179 1.13999 92.9428 1.13999V0.639992V0.139992C79.6077 0.139992 67.2269 2.30914 55.8051 6.65264L55.9828 7.12ZM92.9428 0.639992V1.13999C108.404 1.13999 122.173 3.84949 134.259 9.25641L134.463 8.8L134.667 8.34359C122.433 2.87049 108.522 0.139992 92.9428 0.139992V0.639992ZM134.463 8.8L134.261 9.25739C146.509 14.6657 156.684 22.4566 164.792 32.6316L165.183 32.32L165.574 32.0084C157.362 21.7034 147.056 13.8143 134.665 8.34261L134.463 8.8ZM165.183 32.32L164.847 31.9492L134.607 59.3092L134.943 59.68L135.278 60.0508L165.518 32.6908L165.183 32.32ZM134.943 59.68L135.324 59.3562C129.847 52.9131 123.797 47.9888 117.171 44.595L116.943 45.04L116.715 45.485C123.209 48.8112 129.158 53.6469 134.562 60.0038L134.943 59.68ZM116.943 45.04L117.175 44.5973C110.696 41.1958 103.415 39.5 95.3428 39.5V40V40.5C103.271 40.5 110.389 42.1642 116.71 45.4827L116.943 45.04ZM95.3428 40V39.5C88.4078 39.5 82.0256 40.6291 76.2016 42.894L76.3828 43.36L76.564 43.826C82.2601 41.6109 88.5178 40.5 95.3428 40.5V40ZM76.3828 43.36L76.2016 42.894C70.3761 45.1595 65.3545 48.4793 61.1427 52.8532L61.5028 53.2L61.863 53.5468C65.9711 49.2807 70.8695 46.0405 76.564 43.826L76.3828 43.36ZM61.5028 53.2L61.1424 52.8534C57.0938 57.064 53.8608 62.1595 51.4394 68.1321L51.9028 68.32L52.3662 68.5079C54.7448 62.6405 57.9118 57.656 61.8632 53.5465L61.5028 53.2ZM51.9028 68.32L51.4352 68.1431C49.1711 74.1268 48.0428 80.7478 48.0428 88H48.5428H49.0428C49.0428 80.8522 50.1546 74.3532 52.3705 68.4969L51.9028 68.32ZM48.5428 88H48.0428C48.0428 95.2522 49.1711 101.873 51.4352 107.857L51.9028 107.68L52.3705 107.503C50.1546 101.647 49.0428 95.1478 49.0428 88H48.5428ZM51.9028 107.68L51.4394 107.868C53.8602 113.839 57.0915 119.012 61.1359 123.38L61.5028 123.04L61.8697 122.7C57.9141 118.428 54.7454 113.361 52.3662 107.492L51.9028 107.68ZM61.5028 123.04L61.1493 123.394C65.3607 127.605 70.3803 130.842 76.2016 133.106L76.3828 132.64L76.564 132.174C70.8653 129.958 65.9649 126.795 61.8564 122.686L61.5028 123.04ZM76.3828 132.64L76.2016 133.106C82.0256 135.371 88.4078 136.5 95.3428 136.5V136V135.5C88.5178 135.5 82.2601 134.389 76.564 132.174L76.3828 132.64ZM95.3428 136V136.5C103.415 136.5 110.696 134.804 117.175 131.403L116.943 130.96L116.71 130.517C110.389 133.836 103.271 135.5 95.3428 135.5V136ZM116.943 130.96L117.171 131.405C123.797 128.011 129.847 123.087 135.324 116.644L134.943 116.32L134.562 115.996C129.158 122.353 123.209 127.189 116.715 130.515L116.943 130.96ZM134.943 116.32L134.607 116.691L164.847 144.051L165.183 143.68L165.518 143.309L135.278 115.949L134.943 116.32ZM165.183 143.68L164.794 143.365C156.685 153.382 146.508 161.175 134.256 166.745L134.463 167.2L134.67 167.655C147.057 162.024 157.36 154.138 165.571 143.995L165.183 143.68ZM134.463 167.2L134.259 166.744C122.173 172.15 108.404 174.86 92.9428 174.86V175.36V175.86C108.522 175.86 122.433 173.13 134.667 167.656L134.463 167.2ZM186.37 172H185.87C185.87 172.276 186.094 172.5 186.37 172.5V172ZM186.37 3.99998V3.49998C186.094 3.49998 185.87 3.72385 185.87 3.99998H186.37ZM302.77 11.44L302.565 11.8961L302.568 11.8972L302.77 11.44ZM328.69 33.04L328.27 33.3107L328.272 33.314L328.69 33.04ZM328.69 99.04L329.106 99.3174L329.109 99.314L328.69 99.04ZM302.77 120.16L302.97 120.619L302.973 120.617L302.77 120.16ZM212.77 127.36L212.427 126.996C212.278 127.137 212.23 127.354 212.306 127.545C212.381 127.735 212.565 127.86 212.77 127.86V127.36ZM233.89 107.44H234.39C234.39 107.24 234.272 107.06 234.088 106.981C233.905 106.902 233.692 106.939 233.547 107.076L233.89 107.44ZM233.89 172V172.5C234.166 172.5 234.39 172.276 234.39 172H233.89ZM290.29 172L289.877 172.282C289.97 172.418 290.125 172.5 290.29 172.5V172ZM248.53 110.8V110.3C248.345 110.3 248.175 110.403 248.088 110.566C248.002 110.73 248.013 110.929 248.117 111.082L248.53 110.8ZM299.17 110.8L299.583 110.517C299.489 110.381 299.335 110.3 299.17 110.3V110.8ZM341.17 172V172.5C341.356 172.5 341.526 172.397 341.613 172.233C341.699 172.069 341.688 171.87 341.583 171.717L341.17 172ZM233.89 112.48L233.531 112.828C233.673 112.974 233.889 113.02 234.078 112.944C234.267 112.867 234.39 112.684 234.39 112.48H233.89ZM212.77 90.64V90.14C212.57 90.14 212.388 90.26 212.31 90.4448C212.232 90.6296 212.271 90.8433 212.411 90.9876L212.77 90.64ZM282.37 84.16L282.042 83.7829L282.036 83.7883L282.37 84.16ZM282.37 47.92L282.036 48.2917L282.042 48.297L282.37 47.92ZM212.77 41.44L212.411 41.0924C212.271 41.2367 212.232 41.4504 212.31 41.6352C212.388 41.82 212.57 41.94 212.77 41.94V41.44ZM233.89 19.6H234.39C234.39 19.3962 234.267 19.2129 234.078 19.1365C233.889 19.0601 233.673 19.1059 233.531 19.2524L233.89 19.6ZM186.37 172H186.87V3.99998H186.37H185.87V172H186.37ZM186.37 3.99998V4.49998H263.17V3.99998V3.49998H186.37V3.99998ZM263.17 3.99998V4.49998C278.478 4.49998 291.605 6.9717 302.565 11.8961L302.77 11.44L302.975 10.9839C291.856 5.98828 278.583 3.49998 263.17 3.49998V3.99998ZM302.77 11.44L302.568 11.8972C313.687 16.8214 322.248 23.9603 328.27 33.3107L328.69 33.04L329.111 32.7692C322.973 23.2397 314.254 15.9786 302.973 10.9828L302.77 11.44ZM328.69 33.04L328.272 33.314C334.291 42.5006 337.31 53.442 337.31 66.16H337.81H338.31C338.31 53.278 335.25 42.1394 329.109 32.766L328.69 33.04ZM337.81 66.16H337.31C337.31 78.7166 334.292 89.5784 328.272 98.766L328.69 99.04L329.109 99.314C335.249 89.9416 338.31 78.8834 338.31 66.16H337.81ZM328.69 99.04L328.274 98.7626C322.253 107.795 313.692 114.777 302.568 119.703L302.77 120.16L302.973 120.617C314.249 115.623 322.968 108.525 329.106 99.3173L328.69 99.04ZM302.77 120.16L302.571 119.701C291.609 124.468 278.48 126.86 263.17 126.86V127.36V127.86C278.581 127.86 291.852 125.452 302.97 120.619L302.77 120.16ZM263.17 127.36V126.86H212.77V127.36V127.86H263.17V127.36ZM212.77 127.36L213.113 127.724L234.233 107.804L233.89 107.44L233.547 107.076L212.427 126.996L212.77 127.36ZM233.89 107.44H233.39V172H233.89H234.39V107.44H233.89ZM233.89 172V171.5H186.37V172V172.5H233.89V172ZM290.29 172L290.703 171.718L248.943 110.518L248.53 110.8L248.117 111.082L289.877 172.282L290.29 172ZM248.53 110.8V111.3H299.17V110.8V110.3H248.53V110.8ZM299.17 110.8L298.758 111.083L340.758 172.283L341.17 172L341.583 171.717L299.583 110.517L299.17 110.8ZM341.17 172V171.5H290.29V172V172.5H341.17V172ZM233.89 112.48L234.25 112.132L213.13 90.2924L212.77 90.64L212.411 90.9876L233.531 112.828L233.89 112.48ZM212.77 90.64V91.14H260.29V90.64V90.14H212.77V90.64ZM260.29 90.64V91.14C270.27 91.14 277.775 88.9688 282.705 84.5316L282.37 84.16L282.036 83.7883C277.366 87.9912 270.151 90.14 260.29 90.14V90.64ZM282.37 84.16L282.699 84.537C287.786 80.1058 290.31 73.9578 290.31 66.16H289.81H289.31C289.31 73.7222 286.874 79.5742 282.042 83.783L282.37 84.16ZM289.81 66.16H290.31C290.31 58.2059 287.789 51.9762 282.699 47.543L282.37 47.92L282.042 48.297C286.872 52.5038 289.31 58.4341 289.31 66.16H289.81ZM282.37 47.92L282.705 47.5483C277.775 43.1112 270.27 40.94 260.29 40.94V41.44V41.94C270.151 41.94 277.366 44.0888 282.036 48.2916L282.37 47.92ZM260.29 41.44V40.94H212.77V41.44V41.94H260.29V41.44ZM212.77 41.44L213.13 41.7876L234.25 19.9476L233.89 19.6L233.531 19.2524L212.411 41.0924L212.77 41.44ZM233.89 19.6H233.39V112.48H233.89H234.39V19.6H233.89ZM364.027 172H363.527C363.527 172.276 363.75 172.5 364.027 172.5V172ZM364.027 3.99998V3.49998C363.75 3.49998 363.527 3.72385 363.527 3.99998H364.027ZM480.427 11.44L480.222 11.8961L480.224 11.8972L480.427 11.44ZM506.347 33.04L505.926 33.3107L505.928 33.314L506.347 33.04ZM506.347 99.04L506.765 99.314L506.347 99.04ZM480.427 120.64L480.631 121.096L480.634 121.095L480.427 120.64ZM390.427 128.08L390.077 127.722C389.932 127.864 389.887 128.08 389.964 128.269C390.04 128.457 390.223 128.58 390.427 128.58V128.08ZM411.547 107.44H412.047C412.047 107.239 411.926 107.057 411.741 106.979C411.555 106.901 411.341 106.942 411.197 107.082L411.547 107.44ZM411.547 172V172.5C411.823 172.5 412.047 172.276 412.047 172H411.547ZM411.547 112.48L411.187 112.828C411.329 112.974 411.545 113.02 411.734 112.944C411.923 112.867 412.047 112.684 412.047 112.48H411.547ZM390.427 90.64V90.14C390.226 90.14 390.045 90.26 389.966 90.4448C389.888 90.6296 389.928 90.8433 390.067 90.9876L390.427 90.64ZM460.027 84.16L459.698 83.7829L459.692 83.7883L460.027 84.16ZM460.027 47.92L459.692 48.2917L459.698 48.297L460.027 47.92ZM390.427 41.44L390.067 41.0924C389.928 41.2367 389.888 41.4504 389.966 41.6352C390.045 41.82 390.226 41.94 390.427 41.94V41.44ZM411.547 19.6H412.047C412.047 19.3962 411.923 19.2129 411.734 19.1365C411.545 19.0601 411.329 19.1059 411.187 19.2524L411.547 19.6ZM364.027 172H364.527V3.99998H364.027H363.527V172H364.027ZM364.027 3.99998V4.49998H440.827V3.99998V3.49998H364.027V3.99998ZM440.827 3.99998V4.49998C456.134 4.49998 469.261 6.9717 480.222 11.8961L480.427 11.44L480.631 10.9839C469.512 5.98828 456.239 3.49998 440.827 3.49998V3.99998ZM480.427 11.44L480.224 11.8972C491.343 16.8214 499.904 23.9603 505.926 33.3107L506.347 33.04L506.767 32.7692C500.629 23.2397 491.91 15.9786 480.629 10.9828L480.427 11.44ZM506.347 33.04L505.928 33.314C511.947 42.5006 514.967 53.442 514.967 66.16H515.467H515.967C515.967 53.278 512.906 42.1394 506.765 32.766L506.347 33.04ZM515.467 66.16H514.967C514.967 78.7166 511.948 89.5784 505.928 98.766L506.347 99.04L506.765 99.314C512.905 89.9416 515.967 78.8834 515.967 66.16H515.467ZM506.347 99.04L505.928 98.766C499.906 107.959 491.343 115.1 480.219 120.185L480.427 120.64L480.634 121.095C491.91 115.94 500.628 108.681 506.765 99.314L506.347 99.04ZM480.427 120.64L480.222 120.184C469.261 125.108 456.134 127.58 440.827 127.58V128.08V128.58C456.239 128.58 469.512 126.092 480.631 121.096L480.427 120.64ZM440.827 128.08V127.58H390.427V128.08V128.58H440.827V128.08ZM390.427 128.08L390.776 128.438L411.896 107.798L411.547 107.44L411.197 107.082L390.077 127.722L390.427 128.08ZM411.547 107.44H411.047V172H411.547H412.047V107.44H411.547ZM411.547 172V171.5H364.027V172V172.5H411.547V172ZM411.547 112.48L411.906 112.132L390.786 90.2924L390.427 90.64L390.067 90.9876L411.187 112.828L411.547 112.48ZM390.427 90.64V91.14H437.947V90.64V90.14H390.427V90.64ZM437.947 90.64V91.14C447.926 91.14 455.431 88.9688 460.361 84.5316L460.027 84.16L459.692 83.7883C455.022 87.9912 447.807 90.14 437.947 90.14V90.64ZM460.027 84.16L460.355 84.537C465.443 80.1058 467.967 73.9578 467.967 66.16H467.467H466.967C466.967 73.7222 464.53 79.5742 459.698 83.783L460.027 84.16ZM467.467 66.16H467.967C467.967 58.2059 465.445 51.9762 460.355 47.543L460.027 47.92L459.698 48.297C464.528 52.5038 466.967 58.4341 466.967 66.16H467.467ZM460.027 47.92L460.361 47.5483C455.431 43.1112 447.926 40.94 437.947 40.94V41.44V41.94C447.807 41.94 455.022 44.0888 459.692 48.2916L460.027 47.92ZM437.947 41.44V40.94H390.427V41.44V41.94H437.947V41.44ZM390.427 41.44L390.786 41.7876L411.906 19.9476L411.547 19.6L411.187 19.2524L390.067 41.0924L390.427 41.44ZM411.547 19.6H411.047V112.48H411.547H412.047V19.6H411.547ZM538.636 172H538.136C538.136 172.276 538.36 172.5 538.636 172.5V172ZM538.636 3.99998V3.49998C538.36 3.49998 538.136 3.72385 538.136 3.99998H538.636ZM586.156 3.99998H586.656C586.656 3.72385 586.432 3.49998 586.156 3.49998V3.99998ZM586.156 134.32H585.656C585.656 134.596 585.88 134.82 586.156 134.82V134.32ZM666.316 134.32H666.816C666.816 134.044 666.592 133.82 666.316 133.82V134.32ZM666.316 172V172.5C666.592 172.5 666.816 172.276 666.816 172H666.316ZM538.636 172H539.136V3.99998H538.636H538.136V172H538.636ZM538.636 3.99998V4.49998H586.156V3.99998V3.49998H538.636V3.99998ZM586.156 3.99998H585.656V134.32H586.156H586.656V3.99998H586.156ZM586.156 134.32V134.82H666.316V134.32V133.82H586.156V134.32ZM666.316 134.32H665.816V172H666.316H666.816V134.32H666.316ZM666.316 172V171.5H538.636V172V172.5H666.316V172ZM710.491 172H709.991C709.991 172.276 710.215 172.5 710.491 172.5V172ZM710.491 100.96L710.957 100.78C710.87 100.555 710.636 100.424 710.399 100.468C710.163 100.513 709.991 100.719 709.991 100.96H710.491ZM721.531 129.52L721.102 129.777C721.235 130 721.517 130.083 721.75 129.969C721.984 129.855 722.091 129.582 721.997 129.34L721.531 129.52ZM646.411 3.99998V3.49998C646.231 3.49998 646.065 3.59678 645.976 3.7534C645.887 3.91001 645.889 4.10227 645.982 4.25675L646.411 3.99998ZM696.571 3.99998L697 3.74391C696.91 3.59264 696.747 3.49998 696.571 3.49998V3.99998ZM750.811 94.96V95.46C750.991 95.46 751.157 95.3634 751.246 95.2069C751.335 95.0505 751.333 94.8584 751.24 94.7039L750.811 94.96ZM721.771 94.96L721.342 94.7031C721.249 94.8576 721.247 95.0499 721.336 95.2065C721.425 95.3632 721.591 95.46 721.771 95.46V94.96ZM776.251 3.99998V3.49998C776.075 3.49998 775.912 3.59229 775.822 3.74307L776.251 3.99998ZM822.331 3.99998L822.76 4.25615C822.853 4.10165 822.855 3.90953 822.766 3.75309C822.677 3.59664 822.511 3.49998 822.331 3.49998V3.99998ZM747.451 129.52L746.982 129.347C746.892 129.589 747.002 129.86 747.235 129.971C747.468 130.083 747.748 129.998 747.88 129.776L747.451 129.52ZM758.011 100.96H758.511C758.511 100.718 758.337 100.51 758.099 100.468C757.861 100.425 757.626 100.559 757.542 100.787L758.011 100.96ZM758.011 172V172.5C758.287 172.5 758.511 172.276 758.511 172H758.011ZM710.491 172H710.991V100.96H710.491H709.991V172H710.491ZM710.491 100.96L710.025 101.14L721.065 129.7L721.531 129.52L721.997 129.34L710.957 100.78L710.491 100.96ZM721.531 129.52L721.96 129.263L646.84 3.74323L646.411 3.99998L645.982 4.25675L721.102 129.777L721.531 129.52ZM646.411 3.99998V4.49998H696.571V3.99998V3.49998H646.411V3.99998ZM696.571 3.99998L696.141 4.25607L750.381 95.2161L750.811 94.96L751.24 94.7039L697 3.74391L696.571 3.99998ZM750.811 94.96V94.46H721.771V94.96V95.46H750.811V94.96ZM721.771 94.96L722.2 95.2169L776.68 4.2569L776.251 3.99998L775.822 3.74307L721.342 94.7031L721.771 94.96ZM776.251 3.99998V4.49998H822.331V3.99998V3.49998H776.251V3.99998ZM822.331 3.99998L821.902 3.74383L747.022 129.264L747.451 129.52L747.88 129.776L822.76 4.25615L822.331 3.99998ZM747.451 129.52L747.92 129.693L758.48 101.133L758.011 100.96L757.542 100.787L746.982 129.347L747.451 129.52ZM758.011 100.96H757.511V172H758.011H758.511V100.96H758.011ZM758.011 172V171.5H710.491V172V172.5H758.011V172Z" fill="#244424"/>
</svg>
