<svg width="80" height="80" viewBox="0 0 80 80" fill="none" xmlns="http://www.w3.org/2000/svg">
<mask id="mask0_2014_1470" style="mask-type:luminance" maskUnits="userSpaceOnUse" x="0" y="0" width="80" height="80">
<path d="M80 0H0V80H80V0Z" fill="white"/>
</mask>
<g mask="url(#mask0_2014_1470)">
<path d="M40 79.5C61.8152 79.5 79.5 61.8152 79.5 40C79.5 18.1848 61.8152 0.5 40 0.5C18.1848 0.5 0.5 18.1848 0.5 40C0.5 61.8152 18.1848 79.5 40 79.5Z" fill="#C3F53C"/>
<path d="M80 39.7998V39.9998C80 62.0998 62.1 79.9998 40 79.9998C22.8 79.9998 8.1 69.0998 2.5 53.7998C11.5 59.9998 22.4 63.5998 34.2 63.5998C53.1 63.5998 69.9 54.1998 80 39.7998Z" fill="#63DE1F"/>
<path d="M40 79.5C61.8152 79.5 79.5 61.8152 79.5 40C79.5 18.1848 61.8152 0.5 40 0.5C18.1848 0.5 0.5 18.1848 0.5 40C0.5 61.8152 18.1848 79.5 40 79.5Z" stroke="#002C15" stroke-miterlimit="10"/>
</g>
</svg>
