<svg width="80" height="80" viewBox="0 0 80 80" fill="none" xmlns="http://www.w3.org/2000/svg">
<g clip-path="url(#clip0_2014_1469)">
<mask id="mask0_2014_1469" style="mask-type:luminance" maskUnits="userSpaceOnUse" x="0" y="0" width="80" height="80">
<path d="M80 0H0V80H80V0Z" fill="white"/>
</mask>
<g mask="url(#mask0_2014_1469)">
<path d="M40 79.5C61.8152 79.5 79.5 61.8152 79.5 40C79.5 18.1848 61.8152 0.5 40 0.5C18.1848 0.5 0.5 18.1848 0.5 40C0.5 61.8152 18.1848 79.5 40 79.5Z" fill="#C3F53C"/>
<path d="M80 39.7998V39.9998C80 62.0998 62.1 79.9998 40 79.9998C22.8 79.9998 8.1 69.0998 2.5 53.7998C11.5 59.9998 22.4 63.5998 34.2 63.5998C53.1 63.5998 69.9 54.1998 80 39.7998Z" fill="#63DE1F"/>
<path d="M40 79.5C61.8152 79.5 79.5 61.8152 79.5 40C79.5 18.1848 61.8152 0.5 40 0.5C18.1848 0.5 0.5 18.1848 0.5 40C0.5 61.8152 18.1848 79.5 40 79.5Z" stroke="#002C15" stroke-miterlimit="10"/>
</g>
<g opacity="0.9" clip-path="url(#clip1_2014_1469)">
<path d="M39.8203 19.5606C40.1299 19.6932 40.4121 19.869 40.7012 20.041C40.8601 20.1296 41.0198 20.2169 41.1795 20.3042C41.8927 20.6951 42.5952 21.1038 43.2969 21.515C43.9208 21.8802 44.5475 22.2405 45.1755 22.5985C45.9892 23.0625 46.802 23.5281 47.6127 23.9974C48.0134 24.2293 48.4145 24.4604 48.8173 24.6886C48.9608 24.7699 49.1041 24.8515 49.2474 24.9331C49.4271 25.0353 49.6069 25.1371 49.7871 25.2383C50.9063 25.877 50.9063 25.877 51.1113 26.2871C51.1194 26.4577 51.1222 26.6285 51.1226 26.7992C51.1229 26.879 51.1229 26.879 51.1233 26.9603C51.124 27.1393 51.1241 27.3182 51.1242 27.4972C51.1246 27.6251 51.125 27.7531 51.1254 27.8811C51.1265 28.2293 51.127 28.5776 51.1274 28.9259C51.1276 29.1434 51.1279 29.3609 51.1283 29.5784C51.1294 30.2586 51.1302 30.9388 51.1305 31.619C51.1308 32.4048 51.1322 33.1905 51.1345 33.9762C51.1363 34.5832 51.1371 35.1901 51.1372 35.7971C51.1373 36.1598 51.1378 36.5224 51.1392 36.8851C51.1405 37.2263 51.1407 37.5675 51.14 37.9087C51.1399 38.0339 51.1403 38.1591 51.141 38.2843C51.1421 38.4553 51.1416 38.6263 51.1408 38.7973C51.1409 38.8929 51.141 38.9886 51.1411 39.0872C51.108 39.3685 51.0409 39.5156 50.8711 39.7403C50.6837 39.8702 50.5043 39.9812 50.3055 40.0906C50.2465 40.1242 50.1875 40.1578 50.1268 40.1924C49.9944 40.2677 49.8618 40.3426 49.729 40.4173C49.4098 40.5975 49.0928 40.7815 48.7756 40.9651C48.3267 41.2248 47.8772 41.4834 47.4277 41.7422C46.3331 42.3726 45.2394 43.0044 44.1489 43.6418C43.4619 44.043 42.7732 44.4412 42.083 44.8368C41.6967 45.0587 41.3121 45.2819 40.9333 45.5165C40.8415 45.5728 40.8415 45.5728 40.7479 45.6301C40.6385 45.6976 40.5298 45.766 40.4219 45.8358C40.0485 46.0649 39.7003 46.1595 39.2598 46.1465C39.027 46.0774 39.027 46.0774 38.8193 45.9613C38.737 45.9161 38.6546 45.8709 38.5697 45.8243C38.4803 45.7721 38.3909 45.7198 38.2988 45.666C38.2518 45.6389 38.2048 45.6117 38.1564 45.5837C37.8831 45.4255 37.6111 45.265 37.3398 45.1033C36.8614 44.819 36.3788 44.5421 35.8965 44.2647C35.3212 43.9334 34.7463 43.6015 34.1748 43.2637C33.0749 42.6138 31.9653 41.9802 30.8578 41.3434C30.4237 41.0937 29.99 40.843 29.5567 40.5919C29.3519 40.4736 29.1465 40.3564 28.941 40.2395C28.8321 40.1766 28.7232 40.1136 28.6144 40.0506C28.5245 39.9991 28.4346 39.9477 28.3419 39.8948C28.1039 39.7221 28.0164 39.6032 27.8887 39.3399C27.8578 39.0883 27.8578 39.0883 27.8566 38.8C27.856 38.7467 27.8555 38.6935 27.8549 38.6386C27.8534 38.4608 27.8536 38.283 27.8538 38.1051C27.8531 37.9774 27.8522 37.8496 27.8513 37.7219C27.8492 37.3752 27.8486 37.0286 27.8485 36.682C27.8483 36.4653 27.8478 36.2487 27.8472 36.032C27.845 35.2759 27.844 34.5198 27.8442 33.7637C27.8443 33.0593 27.8418 32.355 27.838 31.6506C27.8348 31.0455 27.8335 30.4403 27.8337 29.8352C27.8338 29.4739 27.8331 29.1127 27.8305 28.7515C27.8282 28.4116 27.8282 28.0719 27.8299 27.732C27.8302 27.6075 27.8296 27.483 27.8282 27.3585C27.8166 26.3015 27.8166 26.3015 28.1196 25.9377C28.3228 25.7476 28.5406 25.5972 28.7864 25.466C28.8653 25.423 28.9441 25.3801 29.0254 25.3358C29.1094 25.2913 29.1934 25.2469 29.28 25.2011C29.4612 25.1025 29.6423 25.0037 29.8234 24.9048C29.9151 24.855 30.0067 24.8053 30.1012 24.754C30.511 24.5286 30.9141 24.2923 31.317 24.0549C32.0133 23.6464 32.7126 23.2433 33.4141 22.8438C34.1103 22.4471 34.8046 22.0475 35.4961 21.6426C36.1683 21.2492 36.8422 20.8592 37.5181 20.4723C37.617 20.4157 37.7159 20.359 37.8148 20.3023C37.9529 20.2231 38.0912 20.1441 38.2294 20.0651C38.3086 20.0198 38.3878 19.9746 38.4694 19.9279C39.3217 19.4566 39.3217 19.4566 39.8203 19.5606ZM38.8785 22.1287C38.7888 22.1807 38.6992 22.2327 38.6068 22.2863C38.5602 22.3138 38.5137 22.3413 38.4657 22.3696C38.3261 22.4521 38.1859 22.5335 38.0456 22.6148C37.5312 22.9152 37.0275 23.2261 36.5371 23.5645C36.9098 23.8925 37.3313 24.1162 37.7633 24.3552C38.4209 24.7229 39.0752 25.0955 39.7252 25.4763C40.4786 25.9174 41.2331 26.3565 41.9906 26.7905C42.4017 27.0264 42.8115 27.2639 43.2174 27.5086C43.4083 27.6235 43.5997 27.7373 43.7912 27.8511C43.9266 27.9321 44.0612 28.0147 44.1956 28.0973C44.2776 28.1458 44.3595 28.1944 44.4439 28.2443C44.5158 28.2879 44.5876 28.3314 44.6617 28.3762C44.863 28.4701 44.863 28.4701 45.0659 28.3961C45.1318 28.3608 45.1977 28.3255 45.2656 28.2891C45.3322 28.2541 45.3988 28.219 45.4674 28.183C45.5374 28.1432 45.6074 28.1035 45.6795 28.0626C45.7577 28.0183 45.8359 27.974 45.9164 27.9284C45.9973 27.8823 46.0782 27.8361 46.1615 27.7886C46.2805 27.7212 46.2805 27.7212 46.4019 27.6525C46.9085 27.3648 47.4101 27.0698 47.9082 26.7676C47.6858 26.5283 47.4726 26.3664 47.1863 26.2102C47.1069 26.1664 47.0275 26.1227 46.9457 26.0776C46.8604 26.0311 46.775 25.9847 46.687 25.9368C46.5046 25.8361 46.3222 25.7353 46.1399 25.6343C46.0935 25.6086 46.0471 25.583 45.9993 25.5565C45.5388 25.3014 45.084 25.0371 44.63 24.7706C43.8764 24.3289 43.121 23.8905 42.3636 23.4555C41.9187 23.1996 41.4755 22.9414 41.0346 22.6789C40.9467 22.6268 40.8587 22.5747 40.7681 22.521C40.6003 22.4213 40.4328 22.3212 40.2658 22.2203C40.1908 22.176 40.1159 22.1316 40.0387 22.0858C39.9731 22.0465 39.9075 22.0072 39.8399 21.9667C39.4527 21.7861 39.2183 21.9303 38.8785 22.1287ZM33.816 25.0656C33.6968 25.1361 33.6968 25.1361 33.5752 25.2079C33.4906 25.2585 33.4061 25.3091 33.319 25.3612C33.1452 25.464 32.9714 25.5667 32.7975 25.6693C32.6693 25.7452 32.6693 25.7452 32.5384 25.8226C32.2053 26.0183 31.8695 26.2088 31.5322 26.3972C31.4786 26.4272 31.425 26.4572 31.3698 26.4881C31.2505 26.5547 31.1311 26.6211 31.0117 26.6875C31.2637 26.8861 31.5269 27.0454 31.8059 27.2033C31.8516 27.2293 31.8972 27.2552 31.9442 27.2819C32.0417 27.3373 32.1392 27.3925 32.2367 27.4477C32.4915 27.5918 32.7458 27.7367 33.0002 27.8815C33.0503 27.91 33.1004 27.9385 33.1519 27.9678C33.545 28.1917 33.9358 28.419 34.325 28.6494C34.7918 28.9257 35.2613 29.1965 35.7329 29.4646C36.0724 29.6586 36.4097 29.8566 36.7471 30.0543C37.078 30.248 37.4095 30.4409 37.7411 30.6335C37.8945 30.7227 38.0478 30.812 38.2009 30.9017C38.3998 31.0178 38.5994 31.1326 38.7993 31.247C38.8579 31.2815 38.9165 31.316 38.9769 31.3516C39.2541 31.5217 39.2541 31.5217 39.5667 31.5572C39.8043 31.4682 40.014 31.3477 40.2338 31.221C40.2813 31.1938 40.3287 31.1666 40.3775 31.1386C40.529 31.0516 40.6801 30.9641 40.8313 30.8766C40.9311 30.8193 41.0309 30.762 41.1307 30.7047C41.6851 30.386 42.2364 30.0622 42.7832 29.7305C42.5119 29.5042 42.2395 29.3174 41.9321 29.1437C41.8437 29.0935 41.7554 29.0433 41.6644 28.9916C41.5686 28.9376 41.4727 28.8836 41.3768 28.8296C41.2766 28.7728 41.1763 28.7159 41.0761 28.659C40.8679 28.5408 40.6596 28.4228 40.4513 28.3049C39.9699 28.0324 39.4897 27.7578 39.0095 27.4833C38.9165 27.4301 38.8234 27.377 38.7304 27.3238C38.087 26.9561 37.4444 26.5871 36.8024 26.2171C36.7166 26.1677 36.6308 26.1182 36.5424 26.0673C36.1574 25.8452 35.7735 25.6218 35.3922 25.3934C35.297 25.3365 35.297 25.3365 35.1998 25.2784C35.0843 25.2092 34.9691 25.1395 34.8542 25.0693C34.416 24.8064 34.2485 24.8078 33.816 25.0656ZM29.9707 28.6094C29.9707 31.8333 29.9707 35.0573 29.9707 38.3789C30.8824 38.8942 30.8824 38.8942 31.8125 39.4199C32.1251 39.6009 32.4372 39.7822 32.7484 39.9655C33.538 40.4282 34.3314 40.8839 35.1266 41.3368C35.6079 41.611 36.0884 41.8865 36.5675 42.1648C36.6153 42.1926 36.6631 42.2203 36.7124 42.2489C36.9408 42.3814 37.1691 42.5142 37.3971 42.6474C37.4782 42.6945 37.5593 42.7416 37.6429 42.7901C37.7137 42.8314 37.7846 42.8728 37.8576 42.9153C38.0541 43.021 38.2514 43.1025 38.459 43.1836C38.504 41.9293 38.5378 40.6752 38.5586 39.4203C38.5684 38.8375 38.5819 38.2552 38.604 37.6726C38.6232 37.1644 38.6356 36.6565 38.6398 36.1479C38.6423 35.8785 38.6491 35.6111 38.6622 35.3419C38.7167 34.3542 38.7167 34.3542 38.459 33.4141C38.0013 32.9235 37.3977 32.6603 36.7885 32.4038C36.3805 32.2239 36.0008 31.9971 35.6162 31.7725C35.4635 31.6862 35.3106 31.6002 35.1576 31.5144C34.6037 31.2014 34.0554 30.8789 33.5067 30.5569C32.8236 30.1574 32.1341 29.7699 31.4419 29.3866C31.0376 29.1621 30.6404 28.9335 30.2543 28.6789C30.1312 28.5963 30.1312 28.5963 29.9707 28.6094ZM48.5532 28.7802C48.4878 28.8177 48.4224 28.8553 48.355 28.894C48.2835 28.9355 48.2121 28.977 48.1384 29.0198C48.0262 29.0845 48.0262 29.0845 47.9117 29.1504C47.2765 29.5171 46.6431 29.887 46.0099 30.2572C45.1596 30.754 44.3064 31.2457 43.4531 31.7373C43.1717 31.8995 42.8903 32.0618 42.609 32.2242C42.5617 32.2514 42.5145 32.2787 42.4658 32.3068C42.2389 32.4377 42.0121 32.5687 41.7852 32.6996C41.7038 32.7466 41.6224 32.7936 41.5386 32.842C41.432 32.9035 41.432 32.9035 41.3233 32.9662C41.0628 33.116 40.8019 33.265 40.541 33.4141C40.541 36.638 40.541 39.862 40.541 43.1836C40.8521 43.0592 41.1153 42.9324 41.4034 42.767C41.4934 42.7154 41.5833 42.6639 41.676 42.6109C41.7732 42.5549 41.8703 42.4989 41.9674 42.4429C42.0686 42.3848 42.1698 42.3267 42.271 42.2687C42.9752 41.8642 43.6768 41.4554 44.3776 41.0452C45.1687 40.5828 45.9644 40.1284 46.7605 39.6746C47.5171 39.2433 48.2732 38.811 49.0293 38.3789C49.0293 35.155 49.0293 31.931 49.0293 28.6094C48.8238 28.6094 48.7312 28.6775 48.5532 28.7802Z" fill="#002C15"/>
<path d="M58.4813 31.9629C59.1108 32.4861 59.484 33.1243 59.5995 33.9355C59.6226 34.3461 59.6223 34.756 59.6215 35.167C59.6219 35.2906 59.6223 35.4142 59.6228 35.5378C59.6238 35.8719 59.6239 36.206 59.6237 36.5401C59.6236 36.82 59.624 37.0999 59.6244 37.3799C59.6253 38.0412 59.6253 38.7025 59.6248 39.3638C59.6243 40.0432 59.6253 40.7226 59.627 41.4021C59.6284 41.9876 59.6289 42.5732 59.6287 43.1588C59.6285 43.5075 59.6287 43.8562 59.6298 44.2049C59.6309 44.5335 59.6307 44.862 59.6296 45.1905C59.6295 45.3101 59.6297 45.4297 59.6303 45.5492C59.6392 47.256 59.2126 49.0293 57.9838 50.2901C57.72 50.5487 57.4525 50.8031 57.1843 51.0572C56.6103 51.6023 56.0408 52.152 55.4738 52.7043C55.1313 53.0377 54.7873 53.3692 54.4395 53.697C54.1018 54.0155 53.7686 54.3382 53.4381 54.6641C53.3123 54.7867 53.185 54.9077 53.0561 55.027C52.4076 55.6291 51.9457 56.0985 51.8905 57.0134C51.8887 57.2524 51.8969 57.4887 51.9089 57.7273C51.9239 58.0611 51.8991 58.2574 51.6718 58.5195C51.3118 58.7623 50.9748 58.8359 50.5507 58.7597C50.192 58.577 50.0041 58.3991 49.83 58.039C49.7867 57.6736 49.7921 57.308 49.7943 56.9404C49.795 56.7635 49.7927 56.5869 49.7901 56.4101C49.79 56.2967 49.79 56.1833 49.7903 56.0699C49.7901 55.9676 49.79 55.8653 49.7898 55.7599C49.8737 55.1683 50.336 54.7883 50.7441 54.3854C50.8034 54.3262 50.8626 54.267 50.9237 54.2061C51.1188 54.0115 51.3145 53.8175 51.5101 53.6234C51.6459 53.4881 51.7817 53.3527 51.9175 53.2173C52.2743 52.8616 52.6315 52.5063 52.9889 52.1512C53.5618 51.5817 54.1342 51.0116 54.7064 50.4414C54.9066 50.242 55.107 50.0429 55.3075 49.8438C55.4295 49.7223 55.5516 49.6008 55.6736 49.4793C55.7297 49.4237 55.7858 49.3682 55.8436 49.3109C55.9199 49.2348 55.9199 49.2348 55.9977 49.1572C56.0421 49.1131 56.0865 49.069 56.1323 49.0235C56.245 48.911 56.245 48.911 56.3163 48.7499C56.3692 48.7499 56.422 48.7499 56.4765 48.7499C56.4971 48.7083 56.5178 48.6667 56.5391 48.6239C56.6148 48.473 56.6918 48.3228 56.7693 48.1728C56.8185 48.0766 56.8677 47.9803 56.9169 47.8841C56.9416 47.8368 56.9663 47.7894 56.9917 47.7407C57.2494 47.2335 57.3771 46.7724 57.3788 46.2035C57.3793 46.1258 57.3793 46.1258 57.3799 46.0465C57.3809 45.8745 57.3808 45.7025 57.3806 45.5305C57.3811 45.4066 57.3816 45.2826 57.3823 45.1587C57.3837 44.8231 57.384 44.4876 57.3841 44.1521C57.3843 43.9423 57.3846 43.7326 57.385 43.5228C57.3865 42.7907 57.3872 42.0586 57.387 41.3264C57.3869 40.6444 57.3886 39.9624 57.3912 39.2804C57.3933 38.6943 57.3941 38.1081 57.394 37.522C57.394 37.1721 57.3944 36.8223 57.3961 36.4725C57.3977 36.1436 57.3977 35.8148 57.3965 35.486C57.3963 35.3654 57.3967 35.2449 57.3977 35.1244C57.3989 34.9595 57.3982 34.7948 57.397 34.63C57.397 34.5379 57.3971 34.4457 57.3972 34.3508C57.3482 34.0371 57.2324 33.8626 57.037 33.6152C56.7462 33.4294 56.4824 33.4343 56.1509 33.4857C55.8957 33.5671 55.7598 33.7315 55.5956 33.9355C55.498 34.1308 55.5063 34.2539 55.5075 34.4722C55.5078 34.5516 55.508 34.6311 55.5083 34.7129C55.5089 34.8005 55.5096 34.888 55.5103 34.9781C55.5107 35.0701 55.511 35.162 55.5114 35.2568C55.5123 35.4572 55.5133 35.6575 55.5144 35.8579C55.5162 36.1758 55.5173 36.4937 55.5183 36.8115C55.5209 37.7156 55.5242 38.6196 55.5293 39.5237C55.5321 40.0227 55.534 40.5218 55.5349 41.0208C55.5354 41.2845 55.5366 41.5481 55.5385 41.8118C55.5587 44.596 55.5587 44.596 54.7949 45.5468C54.7329 45.6357 54.7329 45.6357 54.6697 45.7264C54.6317 45.7728 54.5938 45.8193 54.5546 45.8671C54.5018 45.8671 54.4489 45.8671 54.3945 45.8671C54.378 45.9096 54.3615 45.952 54.3446 45.9958C54.1883 46.2674 53.972 46.4726 53.7513 46.6917C53.704 46.7392 53.6566 46.7868 53.6078 46.8357C53.5078 46.9358 53.4076 47.0357 53.3073 47.1354C53.1532 47.2885 53.0001 47.4425 52.847 47.5966C52.7498 47.6938 52.6525 47.7908 52.5552 47.8879C52.5092 47.9341 52.4632 47.9804 52.4159 48.0281C52.0906 48.3496 52.0906 48.3496 51.912 48.3496C51.8592 48.4553 51.8063 48.561 51.7519 48.6699C51.699 48.6699 51.6462 48.6699 51.5917 48.6699C51.5917 48.7227 51.5917 48.7756 51.5917 48.83C51.4124 49.0293 51.259 49.1975 51.0162 49.3155C50.859 49.378 50.859 49.378 50.8041 49.5345C50.6876 49.7549 50.5428 49.8823 50.3555 50.0462C50.2929 50.1018 50.2302 50.1575 50.1657 50.2148C49.8848 50.4336 49.626 50.4593 49.2745 50.4541C48.9196 50.4057 48.7001 50.1968 48.4787 49.9311C48.361 49.6434 48.3192 49.3726 48.3886 49.0703C48.6015 48.7201 48.8464 48.4307 49.1384 48.1459C49.1803 48.1044 49.2221 48.063 49.2652 48.0202C49.3554 47.9309 49.4457 47.8418 49.5363 47.7528C49.6797 47.6118 49.8227 47.4702 49.9654 47.3285C50.3712 46.9259 50.778 46.5243 51.1851 46.1229C51.4347 45.8768 51.6837 45.63 51.9323 45.3829C52.0269 45.2892 52.1217 45.1957 52.2167 45.1025C52.3497 44.972 52.4819 44.8408 52.614 44.7094C52.6531 44.6715 52.6921 44.6335 52.7324 44.5944C53.0111 44.3149 53.2469 44.0141 53.2934 43.6121C53.2398 43.2045 53.1239 43.0105 52.7929 42.7441C52.5393 42.6173 52.2664 42.6125 51.9921 42.664C51.518 42.9352 51.1573 43.3156 50.7737 43.7002C50.6647 43.8087 50.6647 43.8087 50.5534 43.9193C50.3548 44.1169 50.1567 44.3149 49.9588 44.5131C49.793 44.6789 49.6269 44.8446 49.4609 45.0102C49.0688 45.4014 48.6772 45.793 48.2858 46.1849C47.8833 46.5879 47.48 46.9902 47.0764 47.392C46.7289 47.7382 46.3818 48.0848 46.0351 48.4318C45.8285 48.6385 45.6217 48.8451 45.4145 49.0512C45.183 49.2814 44.9526 49.5126 44.7222 49.7439C44.6543 49.8112 44.5864 49.8785 44.5164 49.9479C44.0179 50.4508 43.5707 50.9821 43.3187 51.6528C43.282 51.7475 43.282 51.7475 43.2445 51.8442C43.1205 52.2285 43.0932 52.5826 43.0921 52.9859C43.0918 53.0399 43.0915 53.0938 43.0912 53.1494C43.0907 53.2661 43.0902 53.3827 43.0899 53.4993C43.0894 53.6841 43.0881 53.869 43.0866 54.0538C43.0824 54.5791 43.0786 55.1045 43.0774 55.6298C43.0765 55.9517 43.0742 56.2736 43.0708 56.5954C43.0699 56.7177 43.0694 56.84 43.0696 56.9623C43.0698 57.1337 43.068 57.3049 43.0658 57.4762C43.0653 57.5736 43.0649 57.6709 43.0644 57.7711C43.0042 58.1643 42.8257 58.4172 42.5229 58.6696C42.1735 58.8126 41.8516 58.8353 41.5019 58.6959C41.2466 58.5576 41.1035 58.4423 40.9413 58.1992C40.8616 57.9007 40.8507 57.6173 40.8496 57.3093C40.8491 57.2122 40.8486 57.1151 40.8481 57.015C40.848 56.9105 40.8479 56.806 40.8478 56.6983C40.8476 56.5887 40.8473 56.479 40.847 56.3693C40.8465 56.1393 40.8464 55.9092 40.8464 55.6791C40.8464 55.3878 40.8453 55.0964 40.844 54.8051C40.8431 54.5782 40.8429 54.3513 40.8429 54.1245C40.8428 53.9659 40.842 53.8074 40.8411 53.6488C40.8454 51.915 41.1625 50.3595 42.3943 49.0699C42.547 48.9208 42.547 48.9208 42.623 48.7499C42.6758 48.7499 42.7287 48.7499 42.7831 48.7499C42.8624 48.5914 42.8624 48.5914 42.9433 48.4296C42.9961 48.4296 43.049 48.4296 43.1035 48.4296C43.1199 48.3872 43.1364 48.3447 43.1533 48.301C43.3096 48.0294 43.5259 47.8242 43.7466 47.6051C43.794 47.5575 43.8413 47.51 43.8902 47.461C43.9901 47.361 44.0903 47.2611 44.1906 47.1614C44.3447 47.0082 44.4978 46.8542 44.6509 46.7001C44.7481 46.603 44.8454 46.5059 44.9427 46.4089C45.0117 46.3395 45.0117 46.3395 45.082 46.2686C45.4073 45.9472 45.4073 45.9472 45.5859 45.9472C45.5859 45.8944 45.5859 45.8415 45.5859 45.7871C45.6387 45.7871 45.6916 45.7871 45.746 45.7871C45.7672 45.7399 45.7884 45.6928 45.8102 45.6442C45.9097 45.4603 46.0143 45.3379 46.1614 45.1902C46.2354 45.1159 46.2354 45.1159 46.311 45.0401C46.3624 44.9893 46.4138 44.9385 46.4667 44.8862C46.5438 44.8081 46.5438 44.8081 46.6225 44.7285C46.6965 44.6548 46.6965 44.6548 46.772 44.5796C46.8171 44.5347 46.8622 44.4898 46.9087 44.4435C47.0273 44.3456 47.0273 44.3456 47.1874 44.3456C47.2078 44.2982 47.2281 44.2507 47.2491 44.2018C47.3585 44.0058 47.4691 43.9057 47.6429 43.7651C47.9277 43.5246 48.1707 43.2694 48.4096 42.9837C48.5807 42.7875 48.7641 42.6069 48.9492 42.4238C49.0298 42.3415 49.1103 42.2591 49.1906 42.1767C50.8759 40.4569 50.8759 40.4569 52.0171 40.4112C52.1146 40.4114 52.212 40.4116 52.3124 40.4118C52.4099 40.4116 52.5073 40.4114 52.6077 40.4112C52.8234 40.4198 52.9882 40.4457 53.1933 40.5019C53.1938 40.4248 53.1942 40.3477 53.1947 40.2682C53.1993 39.5379 53.2052 38.8075 53.2122 38.0772C53.2157 37.7018 53.2189 37.3264 53.221 36.9511C53.2231 36.5881 53.2264 36.2252 53.2304 35.8622C53.2317 35.7245 53.2326 35.5867 53.2331 35.4489C53.2381 34.2233 53.3368 33.1053 54.1993 32.1588C55.404 31.0136 57.163 31.0142 58.4813 31.9629Z" fill="#002C15"/>
<path d="M24.2273 32.719C24.9532 33.229 25.455 33.9044 25.6465 34.7754C25.6536 34.9965 25.6566 35.2155 25.6555 35.4366C25.6556 35.503 25.6556 35.5695 25.6556 35.6379C25.6555 35.8571 25.6549 36.0764 25.6543 36.2956C25.6541 36.4478 25.654 36.5999 25.6539 36.7521C25.6536 37.1523 25.6528 37.5525 25.652 37.9527C25.6511 38.3612 25.6508 38.7696 25.6504 39.1781C25.6495 39.9794 25.6481 40.7807 25.6465 41.582C25.7573 41.5432 25.7573 41.5432 25.8704 41.5036C26.6246 41.2633 27.4326 41.3897 28.1289 41.7422C28.4959 41.967 28.8071 42.2254 29.1198 42.5179C29.1654 42.5602 29.2109 42.6024 29.2578 42.6459C29.5672 42.9363 29.8548 43.2379 30.1249 43.5655C30.2714 43.7231 30.4201 43.8583 30.5832 43.998C30.9171 44.2886 31.2332 44.5934 31.5468 44.9057C31.6045 44.9629 31.6623 45.0202 31.7218 45.0791C31.9109 45.2666 32.0996 45.4544 32.2882 45.6422C32.3857 45.7392 32.3857 45.7392 32.4851 45.8381C32.8287 46.1801 33.172 46.5222 33.5151 46.8646C33.8679 47.2164 34.2215 47.5673 34.5754 47.918C34.849 48.1896 35.1219 48.4618 35.3947 48.7342C35.5247 48.8639 35.655 48.9932 35.7855 49.1223C37.0944 50.4171 37.0944 50.4171 37.498 51.1914C37.535 51.2601 37.5719 51.3287 37.61 51.3995C38.1153 52.4142 38.1762 53.4557 38.1734 54.5647C38.1737 54.693 38.1742 54.8213 38.1746 54.9496C38.1753 55.2161 38.1752 55.4826 38.1744 55.7491C38.1734 56.0898 38.1751 56.4304 38.1774 56.7711C38.1789 57.0351 38.1788 57.299 38.1784 57.563C38.1784 57.6886 38.1789 57.8143 38.1799 57.9399C38.181 58.1152 38.1802 58.2904 38.1788 58.4657C38.1788 58.5651 38.1788 58.6645 38.1788 58.7669C38.1203 59.1634 37.9433 59.4154 37.6382 59.6697C37.2887 59.8126 36.9669 59.8353 36.6172 59.696C36.3619 59.5577 36.2187 59.4424 36.0566 59.1992C35.9705 58.8836 35.9666 58.5814 35.9664 58.2553C35.9662 58.1757 35.9662 58.1757 35.966 58.0945C35.9657 57.9798 35.9655 57.865 35.9655 57.7502C35.9652 57.5046 35.9635 57.2591 35.9619 57.0136C35.9588 56.5573 35.9563 56.1011 35.9565 55.6448C35.9565 55.3266 35.9546 55.0084 35.9515 54.6901C35.9507 54.5699 35.9506 54.4496 35.9512 54.3293C35.9578 52.8963 35.4843 51.993 34.4948 50.9706C34.3625 50.8374 34.2299 50.7046 34.0968 50.5722C34.0238 50.4989 33.9508 50.4257 33.8756 50.3502C33.6778 50.1516 33.4795 49.9536 33.281 49.7557C33.0725 49.5476 32.8644 49.3391 32.6563 49.1307C32.3074 48.7815 31.9581 48.4326 31.6087 48.0839C31.205 47.6811 30.8019 47.2777 30.3991 46.874C30.0521 46.5263 29.7048 46.1789 29.3573 45.8318C29.1502 45.625 28.9431 45.418 28.7364 45.2107C28.5065 44.9802 28.2759 44.7504 28.0453 44.5207C27.977 44.4521 27.9088 44.3836 27.8385 44.3129C27.7757 44.2506 27.7128 44.1882 27.6481 44.1239C27.5665 44.0424 27.5665 44.0424 27.4833 43.9592C27.1817 43.6969 26.9345 43.6274 26.5298 43.6387C26.2554 43.6815 26.0918 43.8037 25.8867 43.9844C25.7122 44.2575 25.6868 44.5278 25.7389 44.8485C26.0042 45.5417 26.812 46.1188 27.3401 46.6377C27.4714 46.7667 27.6022 46.8962 27.733 47.0258C28.1041 47.3935 28.4755 47.761 28.8481 48.1272C29.0775 48.3527 29.3062 48.5791 29.5344 48.806C29.6209 48.8917 29.7077 48.9771 29.7948 49.0623C29.9163 49.181 30.0367 49.3007 30.1569 49.4207C30.2255 49.4883 30.2941 49.556 30.3648 49.6257C30.6062 49.9222 30.7292 50.2463 30.6964 50.6309C30.6406 50.9688 30.4829 51.1388 30.2134 51.3409C29.9311 51.4984 29.7359 51.5169 29.4101 51.5117C29.0666 51.3664 28.8084 51.1872 28.5343 50.9362C28.439 50.8502 28.439 50.8502 28.3419 50.7626C28.1795 50.6011 28.0328 50.4407 27.8849 50.2668C27.5339 49.8639 27.1552 49.4914 26.7744 49.1169C26.6603 49.0038 26.5462 48.8907 26.4321 48.7776C26.1537 48.5016 25.8749 48.2261 25.5955 47.9511C25.4378 47.7958 25.2805 47.6403 25.1235 47.4843C24.9764 47.3384 24.829 47.1929 24.6809 47.0479C23.669 46.0401 23.4677 45.124 23.4609 43.718C23.4614 43.4291 23.4634 43.1402 23.4663 42.8513C23.4694 42.5402 23.4709 42.2292 23.4721 41.9182C23.4747 41.2589 23.4794 40.5997 23.4843 39.9404C23.49 39.1739 23.4949 38.4073 23.4978 37.6407C23.4993 37.3345 23.5023 37.0284 23.5054 36.7222C23.5063 36.5348 23.5071 36.3474 23.5078 36.16C23.509 36.0752 23.5103 35.9903 23.5116 35.9028C23.5117 35.4657 23.4938 35.1517 23.2441 34.7754C23.0144 34.5495 22.8476 34.5006 22.5284 34.5001C22.2492 34.5092 22.1319 34.5302 21.8828 34.6703C21.5894 35.0095 21.5424 35.3166 21.5421 35.7571C21.5417 35.8582 21.5412 35.9592 21.5408 36.0633C21.5411 36.1746 21.5414 36.286 21.5417 36.3973C21.5415 36.5151 21.5412 36.6328 21.5409 36.7506C21.5402 37.0701 21.5404 37.3896 21.541 37.7091C21.5414 38.0442 21.541 38.3793 21.5407 38.7143C21.5404 39.2775 21.5408 39.8407 21.5416 40.4039C21.5425 41.0533 21.5422 41.7027 21.5413 42.3521C21.5406 42.9107 21.5405 43.4693 21.5409 44.028C21.5411 44.3611 21.5412 44.6943 21.5406 45.0274C21.5402 45.3412 21.5405 45.655 21.5414 45.9688C21.5416 46.0833 21.5416 46.1979 21.5412 46.3124C21.5388 47.176 21.5681 47.9978 21.9579 48.7841C21.9982 48.869 22.0386 48.954 22.0802 49.0415C22.6313 49.9643 23.5776 50.7334 24.3349 51.485C24.5273 51.676 24.7194 51.8673 24.9114 52.0586C25.4567 52.602 26.0024 53.1448 26.5485 53.6873C26.8842 54.0209 27.2196 54.3549 27.5547 54.6891C27.682 54.8159 27.8095 54.9426 27.9371 55.0692C28.1148 55.2453 28.2919 55.4218 28.4689 55.5985C28.5216 55.6505 28.5743 55.7025 28.6286 55.7561C28.7008 55.8285 28.7008 55.8285 28.7745 55.9023C28.8372 55.9646 28.8372 55.9646 28.9012 56.0282C29.2835 56.4792 29.2055 57.0403 29.2084 57.599C29.2099 57.7815 29.2149 57.9637 29.2199 58.1462C29.2341 59.1241 29.2341 59.1241 28.9422 59.4779C28.6521 59.7511 28.3615 59.7835 27.9681 59.777C27.6477 59.7424 27.467 59.5727 27.2357 59.3639C27.047 59.0514 27.0759 58.8571 27.0948 58.5008C27.1258 57.8104 27.0895 57.2682 26.6393 56.7222C26.3596 56.4234 26.065 56.1444 25.7641 55.8672C25.6362 55.7431 25.5088 55.6186 25.3818 55.4937C25.0488 55.1682 24.7109 54.8483 24.3716 54.5295C23.9612 54.1421 23.557 53.7483 23.1518 53.3556C22.8363 53.0499 22.5199 52.7452 22.2008 52.4433C20.7749 51.0907 19.4751 49.5533 19.3896 47.4886C19.3893 47.3944 19.3889 47.3002 19.3886 47.2032C19.3883 47.1503 19.388 47.0975 19.3877 47.0431C19.3868 46.8672 19.3865 46.6913 19.3862 46.5154C19.3857 46.3888 19.3852 46.2622 19.3846 46.1356C19.3829 45.7209 19.3821 45.3062 19.3813 44.8915C19.381 44.7484 19.3806 44.6053 19.3803 44.4622C19.3788 43.7898 19.3776 43.1174 19.377 42.445C19.3762 41.6703 19.3741 40.8955 19.3708 40.1208C19.3684 39.5209 19.3672 38.9211 19.367 38.3213C19.3668 37.9635 19.3661 37.6057 19.364 37.2479C19.3622 36.9111 19.3618 36.5743 19.3627 36.2375C19.3627 36.1144 19.3622 35.9913 19.3611 35.8682C19.3519 34.7833 19.5856 33.9344 20.3256 33.1163C21.3798 32.1277 22.9933 32.0036 24.2273 32.719Z" fill="#002C15"/>
</g>
</g>
<defs>
<clipPath id="clip0_2014_1469">
<rect width="80" height="80" fill="white"/>
</clipPath>
<clipPath id="clip1_2014_1469">
<rect width="41" height="41" fill="white" transform="translate(19 19)"/>
</clipPath>
</defs>
</svg>
