<svg width="244" height="148" viewBox="0 0 244 148" fill="none" xmlns="http://www.w3.org/2000/svg">
<path d="M223.171 85.3769C222.869 84.9602 222.604 84.5191 222.339 84.073C217.233 75.6033 194.922 79.6176 194.922 79.6176C192.4 100.037 188.009 97.6305 187.196 96.3463C186.383 95.0622 184.915 82.4507 183.944 80.7352C181.137 80.4754 175.404 80.5194 175.404 80.5194C169.871 80.6568 164.667 85.7935 159.547 94.1603C154.427 102.522 145.4 109.6 145.4 109.6C145.4 109.6 148.08 109.86 149.056 116.036C149.656 116.232 151.454 115.394 152.764 114.717C153.933 114.114 155.236 113.861 156.532 113.987C158.641 114.193 161.675 114.903 164.1 117.325C164.398 117.618 164.715 117.89 165.048 118.138C165.355 117.957 165.527 117.834 165.527 117.834C170.526 115.648 173.453 108.056 173.453 108.056C173.047 107.101 172.811 106.076 172.756 105.032C172.677 103.992 172.691 102.947 172.798 101.91C172.905 100.895 172.979 99.89 173.007 98.8804C173.055 97.8623 173.013 96.8416 172.881 95.8317C173.28 96.7909 173.507 97.8195 173.55 98.8657C173.619 99.9046 173.598 100.948 173.49 101.983C173.383 102.993 173.323 103.998 173.3 105.012C173.265 106.03 173.316 107.048 173.453 108.056C173.733 110.765 174.341 113.425 175.26 115.972C176.581 116.434 177.943 116.751 179.326 116.918C180.006 117 180.691 117.023 181.374 116.986C182.075 116.945 182.772 116.867 183.465 116.751C182.84 117.146 182.152 117.419 181.435 117.555C181.076 117.628 180.713 117.674 180.348 117.692C179.982 117.697 179.616 117.682 179.251 117.648C178.526 117.565 177.814 117.384 177.133 117.109C176.453 116.842 175.82 116.458 175.26 115.972C175.652 117.105 176.171 118.185 176.807 119.187C180.254 119.397 183.631 120.29 186.764 121.819C187.558 122.207 188.288 122.726 189.022 123.108C189.769 123.502 190.552 123.815 191.359 124.045C192.983 124.511 194.656 124.761 196.34 124.79C197.194 124.819 198.008 124.77 198.89 124.741C199.758 124.73 200.625 124.775 201.487 124.873C203.197 125.059 204.902 125.265 206.594 125.579C207.239 125.696 207.88 125.824 208.522 125.956C208.224 125.53 207.969 125.074 207.76 124.594C207.433 123.87 207.188 123.108 207.03 122.324C206.868 121.541 206.77 120.744 206.738 119.942C206.695 119.134 206.725 118.323 206.826 117.521L206.83 117.496L206.84 117.462C207.094 116.592 207.252 115.694 207.309 114.786C207.381 113.864 207.39 112.939 207.337 112.016C207.276 111.093 207.169 110.173 207.016 109.262C206.849 108.365 206.626 107.429 206.505 106.483C206.262 104.597 206.206 102.69 206.338 100.792C206.384 99.846 206.477 98.8999 206.612 97.9687C206.736 97.0339 206.905 96.1063 207.119 95.1896C206.898 97.0534 206.777 98.9287 206.756 100.807C206.73 102.671 206.859 104.534 207.142 106.375C207.202 106.836 207.309 107.286 207.397 107.737L207.685 109.129C207.857 110.07 207.97 111.021 208.025 111.977C208.162 113.893 207.952 115.82 207.407 117.653C207.291 118.407 207.232 119.169 207.23 119.932C207.225 120.709 207.282 121.484 207.402 122.251C207.519 123.019 207.705 123.774 207.959 124.505C208.139 125.019 208.364 125.513 208.633 125.981C209.641 126.196 210.64 126.441 211.63 126.731C213.294 127.189 214.893 127.877 216.387 128.775C214.843 128.008 213.218 127.439 211.546 127.079C210.687 126.868 209.821 126.685 208.949 126.53C208.947 126.527 208.943 126.525 208.94 126.525C208.136 126.378 207.328 126.25 206.515 126.138C204.823 125.907 203.128 125.706 201.432 125.564C200.592 125.481 199.748 125.447 198.904 125.461C198.082 125.49 197.181 125.554 196.326 125.525C194.584 125.487 192.854 125.214 191.178 124.711C190.337 124.452 189.521 124.107 188.743 123.682C188.353 123.481 187.972 123.211 187.614 122.991C187.257 122.76 186.899 122.52 186.522 122.324C185.02 121.492 183.437 120.831 181.802 120.354C180.166 119.837 178.497 119.447 176.807 119.187L172.965 119.574C173.084 119.747 173.17 119.941 173.221 120.148C174.21 123.525 172.784 136.754 172.784 136.754C178.271 140.999 208.642 147.562 208.642 147.562C228.221 151.037 228.402 132.696 228.402 132.696C231.905 99.7823 225.02 87.906 223.171 85.3769ZM198.672 118.927C198.313 119.001 197.95 119.046 197.585 119.065C197.219 119.07 196.853 119.055 196.488 119.021C195.763 118.937 195.051 118.756 194.37 118.481C193.69 118.215 193.057 117.83 192.497 117.344C193.818 117.806 195.18 118.123 196.563 118.29C197.243 118.372 197.928 118.395 198.611 118.359C199.312 118.318 200.009 118.239 200.702 118.124C200.077 118.519 199.389 118.791 198.672 118.927V118.927Z" fill="black" fill-opacity="0.46"/>
<path d="M183.903 80.7583C183.769 80.5455 183.62 80.3437 183.457 80.1545C183.295 79.9684 183.118 79.7985 182.926 79.6469C182.736 79.4986 182.53 79.3732 182.314 79.2729C182.105 79.1743 181.884 79.111 181.656 79.0853L181.729 79.0703C181.263 79.3071 180.77 79.4808 180.262 79.5873C179.747 79.7045 179.216 79.7229 178.694 79.6415C178.152 79.5569 177.642 79.3216 177.215 78.9598C176.822 78.5891 176.478 78.1653 176.191 77.6995C175.63 76.8027 175.131 75.8645 174.698 74.892C174.262 73.9263 173.87 72.95 173.504 71.9468L173.88 72.2084C173.447 72.2548 173.01 72.1847 172.61 72.0048C172.377 71.8894 172.18 71.7055 172.043 71.4752C171.917 71.2526 171.842 71.0022 171.824 70.7437C171.802 70.3006 171.862 69.8572 172 69.438C172.121 69.0381 172.281 68.6524 172.477 68.287C172.844 67.7201 173.016 67.0378 172.965 66.3533C172.936 66.0201 172.849 65.6953 172.708 65.3951L172.455 64.8949C172.368 64.7176 172.283 64.5373 172.203 64.3528C172.039 63.9838 171.908 63.5992 171.812 63.2042C171.708 62.8196 171.623 62.4293 171.558 62.0349C171.477 61.6436 171.452 61.2426 171.406 60.8462C171.391 60.446 171.368 60.0468 171.388 59.6471C171.42 58.0398 171.793 56.4604 172.479 55.0252C172.503 54.9769 172.54 54.9367 172.584 54.9094C172.629 54.882 172.68 54.8686 172.731 54.8707C172.783 54.8728 172.833 54.8903 172.875 54.9211C172.918 54.952 172.951 54.995 172.972 55.0451L172.976 55.056C173.543 56.4373 174.267 57.741 175.131 58.9385C175.992 60.1477 177.026 61.2081 178.196 62.0817C179.363 62.9574 180.696 63.5561 182.103 63.8365C183.508 64.1097 184.951 64.0689 186.34 63.7167L186.35 63.7143C186.383 63.7065 186.417 63.7087 186.449 63.7206C186.48 63.7325 186.508 63.7536 186.528 63.7815C187.089 64.5954 187.479 65.5255 187.674 66.5104C187.881 67.4725 187.987 68.4558 187.989 69.4423C187.994 70.4242 187.928 71.4051 187.791 72.3763C187.627 73.2983 187.566 74.2373 187.607 75.1743C187.649 76.0799 187.881 76.9643 188.287 77.7636C188.692 78.5336 189.31 79.1544 190.06 79.5425C190.823 79.9184 191.667 80.0766 192.506 80.0016C193.367 79.9283 194.209 79.6996 194.996 79.3256C195.071 79.2909 195.154 79.2779 195.237 79.2879C195.319 79.2979 195.397 79.3306 195.463 79.3827C195.529 79.4348 195.581 79.5044 195.614 79.5845C195.647 79.6646 195.659 79.7524 195.649 79.8389L195.648 79.8453C195.307 82.9693 194.776 86.067 194.06 89.1196C193.689 90.6602 193.201 92.167 192.601 93.6253C192.293 94.3702 191.914 95.0805 191.471 95.7454C191.239 96.0881 190.977 96.4061 190.686 96.6949C190.385 97.0066 190.031 97.2557 189.642 97.4292C189.226 97.6178 188.766 97.6713 188.321 97.5828C187.88 97.4875 187.475 97.2595 187.154 96.9263C186.983 96.7551 186.846 96.5491 186.753 96.3207C186.678 96.1235 186.614 95.9216 186.562 95.7163C186.458 95.3243 186.379 94.9388 186.301 94.5521C185.994 93.009 185.783 91.4629 185.549 89.92L184.861 85.295C184.743 84.5254 184.62 83.7569 184.477 82.9933C184.361 82.2289 184.169 81.4797 183.903 80.7583L183.9 80.7514C183.895 80.7399 183.894 80.7268 183.898 80.7148C183.902 80.7029 183.91 80.6931 183.921 80.6874C183.932 80.6818 183.944 80.6808 183.956 80.6846C183.967 80.6884 183.977 80.6967 183.982 80.7078C184.306 81.4187 184.549 82.1672 184.708 82.938C184.892 83.6969 185.057 84.4599 185.216 85.2236C185.538 86.7506 185.81 88.2867 186.101 89.8171C186.387 91.3474 186.683 92.8784 187.009 94.3857C187.094 94.7602 187.18 95.1359 187.285 95.4931C187.332 95.6638 187.389 95.8314 187.455 95.9951C187.512 96.124 187.594 96.2389 187.696 96.3327C187.906 96.5483 188.175 96.6909 188.464 96.7415C188.754 96.7921 189.051 96.7482 189.317 96.6158C189.902 96.2861 190.394 95.7983 190.742 95.2022C191.132 94.576 191.467 93.9136 191.744 93.2233C192.306 91.8088 192.761 90.3489 193.103 88.8578C193.793 85.8432 194.332 82.792 194.715 79.7171L195.368 80.2368C194.478 80.6435 193.528 80.8855 192.56 80.9522C191.566 81.0237 190.571 80.8195 189.676 80.3598C188.775 79.8815 188.038 79.1189 187.568 78.1783C187.125 77.2599 186.882 76.249 186.855 75.219C186.831 74.2259 186.919 73.2333 187.117 72.2621C187.283 71.3298 187.381 70.3855 187.41 69.4375C187.442 68.493 187.374 67.5476 187.204 66.6195C187.052 65.7039 186.722 64.8313 186.236 64.056L186.424 64.1206C184.98 64.4361 183.492 64.4493 182.043 64.1595C181.322 64.0109 180.62 63.7757 179.949 63.4584C179.277 63.1499 178.634 62.7739 178.031 62.3354C176.828 61.4522 175.752 60.3915 174.835 59.1857C173.897 57.9907 173.102 56.6793 172.465 55.2807L172.962 55.3115C172.379 56.6762 172.089 58.1601 172.114 59.6568C172.116 60.4035 172.19 61.148 172.335 61.879C172.402 62.2453 172.488 62.6073 172.593 62.9635C172.686 63.3159 172.807 63.6594 172.955 63.9904C173.027 64.1576 173.106 64.3233 173.189 64.4882C173.271 64.6575 173.356 64.8021 173.455 65.0098C173.64 65.4042 173.756 65.8311 173.797 66.2694C173.86 67.141 173.641 68.0094 173.175 68.7323C172.832 69.3166 172.639 69.9852 172.615 70.6721C172.613 70.796 172.644 70.9179 172.705 71.0238C172.766 71.1298 172.854 71.2155 172.959 71.2712C173.237 71.3932 173.538 71.4421 173.838 71.4138L173.843 71.4136C173.923 71.4098 174.003 71.4333 174.069 71.4804C174.136 71.5276 174.186 71.596 174.214 71.6757C174.546 72.6546 174.921 73.6334 175.322 74.5894C175.707 75.5482 176.157 76.4765 176.669 77.3672C176.913 77.7992 177.21 78.1959 177.551 78.5472C177.9 78.8636 178.323 79.0766 178.775 79.1645C179.732 79.3248 180.712 79.196 181.602 78.7928L181.621 78.7847C181.638 78.7775 181.657 78.7752 181.675 78.7778C181.935 78.8198 182.186 78.9067 182.419 79.035C182.646 79.157 182.858 79.3052 183.054 79.4771C183.244 79.6506 183.417 79.8432 183.572 80.0522C183.724 80.2595 183.861 80.4787 183.982 80.7078C183.985 80.7134 183.987 80.7196 183.988 80.726C183.989 80.7323 183.989 80.7388 183.987 80.745C183.985 80.7512 183.983 80.7571 183.979 80.7622C183.975 80.7673 183.97 80.7715 183.965 80.7747C183.955 80.7806 183.942 80.7822 183.931 80.7791C183.919 80.7761 183.909 80.7687 183.903 80.7583Z" fill="black"/>
<path d="M172.907 71.6954C172.812 72.4751 172.713 73.2483 172.636 74.0228C172.563 74.7975 172.492 75.5704 172.47 76.3432C172.434 77.1115 172.464 77.8816 172.56 78.6441C172.608 79.0218 172.704 79.3909 172.846 79.7411C172.979 80.1006 173.201 80.4159 173.489 80.6545C173.148 80.4697 172.868 80.1826 172.682 79.8294C172.498 79.4758 172.361 79.0968 172.276 78.7034C172.117 77.9238 172.056 77.1255 172.094 76.3291C172.125 75.5401 172.21 74.7545 172.351 73.9789C172.482 73.2041 172.667 72.4408 172.907 71.6954Z" fill="black"/>
<path d="M172.683 55.1966C172.587 55.0206 172.527 54.8258 172.505 54.6242C172.483 54.4226 172.5 54.2184 172.555 54.024L172.632 53.7323L172.752 53.4619C172.794 53.3725 172.832 53.2794 172.877 53.1923L173.035 52.947C173.245 52.6197 173.482 52.3133 173.745 52.0318C174.011 51.7593 174.294 51.5081 174.572 51.2471C175.743 50.3124 176.998 49.4997 178.319 48.8207C178.978 48.4908 179.644 48.1752 180.31 47.8615C180.983 47.5698 181.661 47.2883 182.34 47.0115C183.02 46.7486 183.711 46.5216 184.399 46.2808C184.746 46.1705 185.082 46.0452 185.453 45.9368C185.814 45.8347 186.179 45.7527 186.547 45.6912C188.011 45.4372 189.508 45.5015 190.947 45.8803C192.381 46.2613 193.705 47.0018 194.809 48.0389C195.899 49.0918 196.796 50.3461 197.457 51.7398C198.121 53.1277 198.629 54.5929 198.97 56.1055L198.976 56.1462C199.335 58.2221 199.967 60.2351 200.852 62.127C201.289 63.071 201.796 63.9777 202.366 64.8388C202.927 65.7015 203.561 66.5094 204.259 67.2527L205.364 68.3323C205.762 68.6991 206.135 69.0939 206.483 69.5137C207.193 70.342 207.779 71.2801 208.221 72.2955C209.136 74.3017 209.365 76.5802 208.869 78.7442C208.866 78.7562 208.858 78.7666 208.848 78.7732C208.838 78.7798 208.826 78.7821 208.815 78.7797C208.803 78.7772 208.793 78.7702 208.786 78.7601C208.779 78.7499 208.776 78.7374 208.778 78.7251L208.779 78.7196C208.909 77.663 208.869 76.5906 208.659 75.5483C208.469 74.5158 208.125 73.5218 207.639 72.6035C207.4 72.147 207.135 71.7067 206.844 71.2854C206.545 70.87 206.221 70.4755 205.874 70.1043C205.535 69.7246 205.172 69.3696 204.787 69.0418L203.607 67.9637C202.091 66.4187 200.86 64.59 199.977 62.5706C199.537 61.5707 199.165 60.5393 198.864 59.484C198.551 58.428 198.323 57.346 198.184 56.2495L198.19 56.29C197.913 54.8184 197.498 53.3793 196.952 51.9935C196.406 50.6057 195.604 49.3459 194.594 48.2871C194.074 47.7751 193.495 47.3339 192.871 46.9738C192.242 46.6219 191.57 46.364 190.874 46.2076C189.48 45.9145 188.042 45.9507 186.663 46.3134C186.322 46.3967 185.985 46.499 185.653 46.6198C185.335 46.7381 184.996 46.8922 184.659 47.0273L182.63 47.8284C181.964 48.1115 181.296 48.3898 180.624 48.6581L178.649 49.5538C177.348 50.1694 176.094 50.8894 174.898 51.7075C174.618 51.932 174.329 52.1496 174.058 52.386C173.792 52.6253 173.544 52.8861 173.316 53.1661L173.146 53.3769C173.097 53.4513 173.056 53.5304 173.009 53.6073L172.874 53.8414L172.78 54.0928C172.646 54.4261 172.638 54.801 172.759 55.14L172.763 55.1503C172.768 55.1614 172.769 55.1741 172.765 55.1857C172.761 55.1973 172.754 55.2071 172.744 55.2129C172.733 55.2188 172.721 55.2204 172.71 55.2174C172.699 55.2143 172.689 55.2069 172.683 55.1966V55.1966Z" fill="black"/>
<path d="M173.832 64.6669C174.475 64.1794 175.176 63.7842 175.918 63.4916C176.288 63.3413 176.669 63.2207 177.057 63.1309C177.447 63.0266 177.853 63.0068 178.251 63.0729C177.871 63.1595 177.498 63.2784 177.137 63.4286L176.052 63.8619C175.325 64.1497 174.6 64.4464 173.832 64.6669Z" fill="black"/>
<path d="M175.865 67.4065C176.011 67.4011 176.15 67.3361 176.251 67.2251C176.353 67.1141 176.41 66.9658 176.41 66.8114C176.41 66.6571 176.353 66.5088 176.251 66.3978C176.15 66.2868 176.011 66.2218 175.865 66.2164C175.719 66.2218 175.58 66.2868 175.479 66.3978C175.377 66.5088 175.32 66.6571 175.32 66.8114C175.32 66.9658 175.377 67.1141 175.479 67.2251C175.58 67.3361 175.719 67.4011 175.865 67.4065Z" fill="black"/>
<path d="M174.956 74.6151C175.238 74.6244 175.521 74.6161 175.803 74.5903C176.078 74.5638 176.349 74.5288 176.618 74.4747C176.887 74.4195 177.155 74.3562 177.424 74.2786C177.693 74.202 177.963 74.1175 178.251 74.0416C178.037 74.2558 177.793 74.4334 177.527 74.5683C177.26 74.7053 176.978 74.8049 176.687 74.8646C176.1 74.998 175.487 74.9097 174.956 74.6151Z" fill="black"/>
<path d="M172.863 134.997C171.466 134.454 170.03 134.031 168.568 133.733C167.129 133.424 165.651 133.374 164.197 133.586L163.661 133.681L163.138 133.831C162.791 133.933 162.45 134.057 162.117 134.202C161.451 134.504 160.813 134.87 160.21 135.295C159.596 135.72 159.013 136.206 158.327 136.626C157.64 137.033 156.901 137.333 156.132 137.516C155.369 137.707 154.585 137.79 153.801 137.764C152.98 137.765 152.171 137.557 151.442 137.16C151.24 137.03 151.061 136.866 150.91 136.675C150.776 136.5 150.693 136.373 150.575 136.23C150.354 135.961 150.097 135.727 149.814 135.534C149.191 135.152 148.533 134.837 147.85 134.594C147.113 134.347 146.407 134.008 145.745 133.586C145.41 133.347 145.116 133.051 144.874 132.708C144.756 132.547 144.649 132.393 144.535 132.25C144.479 132.176 144.42 132.113 144.36 132.041C144.294 131.959 144.219 131.877 144.163 131.795C143.719 131.146 143.312 130.47 142.943 129.77C142.57 129.082 142.198 128.397 141.842 127.7L141.951 127.784L140.994 127.564C140.664 127.504 140.339 127.411 140.026 127.284C139.398 127.008 138.846 126.567 138.423 126.005C138.191 125.723 138.032 125.383 137.961 125.018C137.933 124.826 137.945 124.629 137.995 124.442C138.045 124.254 138.131 124.08 138.249 123.931C138.475 123.65 138.751 123.419 139.062 123.251C139.373 123.084 139.713 122.983 140.061 122.954C140.397 122.934 140.735 122.949 141.069 122.998L142.043 123.072C142.692 123.115 143.342 123.147 143.992 123.169C145.292 123.211 146.593 123.201 147.885 123.116C149.168 123.046 150.442 122.857 151.694 122.553C152.299 122.401 152.886 122.175 153.441 121.878C153.701 121.735 153.943 121.558 154.161 121.351C154.38 121.139 154.58 120.905 154.756 120.652C154.903 120.476 154.995 120.256 155.019 120.023C155.011 119.973 155.003 119.953 154.942 119.897C154.851 119.836 154.751 119.789 154.646 119.759C154.065 119.635 153.468 119.626 152.884 119.734C152.585 119.777 152.29 119.846 152.002 119.938C151.884 119.975 151.771 120.025 151.663 120.088L151.563 120.157C151.519 120.189 151.475 120.215 151.431 120.241C151.345 120.292 151.255 120.338 151.164 120.377C150.823 120.521 150.467 120.619 150.103 120.668C149.928 120.694 149.755 120.713 149.581 120.726C149.381 120.744 149.179 120.737 148.98 120.702C148.559 120.627 148.17 120.419 147.863 120.107C147.571 119.798 147.36 119.415 147.248 118.995C147.054 118.189 147.156 117.335 147.535 116.606C147.724 116.199 148.021 115.861 148.391 115.631C148.514 115.563 148.648 115.517 148.786 115.496C148.866 115.485 148.948 115.485 149.029 115.494C149.071 115.499 149.113 115.507 149.154 115.518L149.206 115.533L149.212 115.532C149.307 115.542 149.403 115.536 149.496 115.513C150.094 115.368 150.676 115.161 151.236 114.896C151.529 114.764 151.822 114.626 152.114 114.482L152.551 114.264C152.707 114.185 152.867 114.111 153.028 114.041C153.676 113.767 154.357 113.591 155.05 113.516C155.737 113.451 156.428 113.476 157.108 113.591C157.773 113.687 158.431 113.828 159.079 114.013C160.384 114.375 161.625 114.958 162.753 115.739C163.313 116.134 163.837 116.584 164.319 117.081C164.784 117.532 165.281 117.945 165.806 118.316C168.046 119.694 170.632 120.316 173.216 120.099L173.22 120.098C173.232 120.098 173.244 120.102 173.253 120.11C173.262 120.118 173.268 120.13 173.269 120.143C173.27 120.155 173.267 120.168 173.26 120.178C173.252 120.188 173.241 120.194 173.229 120.196C170.587 120.624 167.884 120.137 165.526 118.809C164.949 118.441 164.4 118.026 163.885 117.567C162.459 116.23 160.735 115.295 158.875 114.849C158.258 114.692 157.631 114.577 157 114.504C156.387 114.416 155.766 114.411 155.152 114.487C154.545 114.562 153.952 114.725 153.388 114.971C153.248 115.034 153.11 115.1 152.973 115.172L152.527 115.402C152.229 115.553 151.927 115.7 151.622 115.842C150.995 116.153 150.336 116.39 149.66 116.548C149.433 116.599 149.198 116.599 148.971 116.549L148.917 116.536C148.899 116.532 148.913 116.536 148.91 116.535L148.915 116.536C148.917 116.536 148.918 116.535 148.914 116.536C148.89 116.541 148.867 116.55 148.846 116.562C148.657 116.697 148.506 116.883 148.409 117.101C148.151 117.592 148.076 118.167 148.199 118.713C148.263 118.96 148.383 119.187 148.548 119.374C148.712 119.546 148.921 119.661 149.149 119.705C149.272 119.729 149.398 119.734 149.523 119.722C149.676 119.714 149.827 119.7 149.976 119.68C150.261 119.647 150.541 119.576 150.81 119.47C150.87 119.446 150.928 119.417 150.984 119.385C151.011 119.37 151.037 119.354 151.063 119.337L151.169 119.267C151.345 119.159 151.534 119.075 151.73 119.016C152.068 118.913 152.413 118.838 152.762 118.793C153.47 118.675 154.193 118.704 154.89 118.878C155.1 118.942 155.298 119.044 155.474 119.181C155.584 119.271 155.675 119.383 155.743 119.511C155.811 119.639 155.854 119.78 155.869 119.926C155.888 120.177 155.841 120.429 155.734 120.655C155.653 120.841 155.552 121.016 155.433 121.176C155.218 121.476 154.974 121.75 154.704 121.995C154.43 122.242 154.128 122.451 153.805 122.618C153.186 122.929 152.535 123.161 151.865 123.31C150.563 123.593 149.239 123.74 147.91 123.75C146.592 123.779 145.279 123.732 143.971 123.644C143.317 123.599 142.664 123.542 142.012 123.473L141.035 123.363C140.722 123.311 140.406 123.292 140.09 123.306C139.785 123.326 139.487 123.41 139.213 123.552C138.938 123.694 138.693 123.891 138.491 124.133C138.397 124.247 138.328 124.381 138.287 124.525C138.246 124.67 138.234 124.822 138.254 124.971C138.314 125.284 138.448 125.575 138.645 125.818C139.035 126.342 139.549 126.749 140.135 126.997C140.433 127.114 140.741 127.199 141.055 127.252L142.017 127.449C142.038 127.454 142.059 127.463 142.078 127.477C142.096 127.49 142.111 127.508 142.122 127.528L142.126 127.534C142.845 128.902 143.653 130.217 144.544 131.468C144.6 131.544 144.66 131.6 144.717 131.667C144.783 131.74 144.859 131.814 144.923 131.892C145.056 132.045 145.177 132.204 145.293 132.349C145.511 132.633 145.772 132.875 146.066 133.065C146.702 133.43 147.377 133.714 148.076 133.913C148.822 134.139 149.542 134.451 150.224 134.843C150.575 135.07 150.894 135.348 151.171 135.669C151.303 135.82 151.439 136.013 151.544 136.14C151.638 136.248 151.746 136.34 151.865 136.415C152.476 136.73 153.149 136.891 153.829 136.884C154.542 136.908 155.255 136.838 155.952 136.675C156.646 136.519 157.315 136.257 157.938 135.897C158.549 135.531 159.162 135.061 159.805 134.633C160.457 134.197 161.145 133.825 161.86 133.522C162.224 133.381 162.596 133.264 162.973 133.17L163.539 133.034L164.113 132.957C165.634 132.793 167.17 132.914 168.651 133.314C170.111 133.704 171.533 134.237 172.898 134.906C172.909 134.911 172.918 134.92 172.923 134.932C172.927 134.944 172.927 134.957 172.923 134.968C172.919 134.98 172.911 134.99 172.9 134.995C172.889 135 172.877 135.001 172.865 134.997L172.863 134.997Z" fill="#C3F53C"/>
<path d="M141.982 127.616C142.887 127.534 143.792 127.496 144.697 127.464C145.601 127.428 146.506 127.423 147.411 127.418L148.768 127.428C149.234 127.428 149.698 127.496 150.147 127.629C151.007 127.951 151.845 128.334 152.655 128.774C152.219 128.642 151.791 128.486 151.358 128.343C150.941 128.174 150.513 128.034 150.078 127.925C149.647 127.832 149.208 127.791 148.768 127.804L147.411 127.814C146.506 127.809 145.601 127.804 144.697 127.768C143.792 127.736 142.887 127.698 141.982 127.616Z" fill="#C3F53C"/>
<path d="M142.442 128.47C143.051 128.965 143.632 129.492 144.209 130.025C144.508 130.281 144.773 130.583 145.064 130.797C145.357 131.019 145.686 131.185 146.035 131.285C146.371 131.392 146.759 131.408 147.143 131.483C147.524 131.55 147.903 131.637 148.276 131.744C149.04 131.913 149.75 132.286 150.338 132.828C150.022 132.606 149.675 132.438 149.31 132.329C148.95 132.207 148.583 132.111 148.211 132.042C147.838 131.974 147.466 131.903 147.089 131.854C146.701 131.815 146.315 131.753 145.933 131.667C145.543 131.55 145.177 131.357 144.853 131.098C144.555 130.832 144.273 130.547 144.009 130.244C143.475 129.667 142.945 129.085 142.442 128.47Z" fill="#C3F53C"/>
<path d="M133.892 115.78C133.593 115.139 133.226 114.535 132.8 113.98L132.872 114.029C132.159 113.911 131.495 113.575 130.962 113.062C130.684 112.765 130.512 112.376 130.477 111.96C130.46 111.754 130.469 111.546 130.503 111.342C130.551 111.148 130.608 110.957 130.676 110.769C131.001 110.038 131.574 109.462 132.282 109.154C132.636 108.977 133.021 108.879 133.413 108.869C133.835 108.866 134.248 109.003 134.592 109.259L133.981 109.465C134.075 109.198 134.202 108.946 134.361 108.716C134.512 108.491 134.688 108.286 134.886 108.105C135.286 107.745 135.76 107.489 136.271 107.358C136.765 107.233 137.276 107.205 137.779 107.275L138.138 107.324C138.278 107.346 138.416 107.382 138.549 107.431C138.797 107.521 139.035 107.639 139.258 107.785C140.1 108.359 140.773 109.169 141.203 110.125C141.623 111.03 141.93 111.99 142.114 112.979L141.237 113.035C141.313 112.406 141.493 111.796 141.768 111.231C142.042 110.65 142.451 110.151 142.956 109.78C143.472 109.424 144.073 109.227 144.69 109.213C144.838 109.207 144.985 109.212 145.132 109.227L145.351 109.242C145.437 109.246 145.523 109.26 145.605 109.286C145.902 109.379 146.182 109.523 146.434 109.712C147.339 110.462 148.008 111.483 148.353 112.641C148.718 113.738 148.954 114.877 149.057 116.034C148.816 114.918 148.47 113.831 148.024 112.788C147.619 111.771 146.951 110.894 146.096 110.258C145.894 110.127 145.675 110.029 145.446 109.966C145.397 109.953 145.346 109.948 145.296 109.951L145.107 109.949C144.501 109.917 143.903 110.098 143.405 110.462C143.032 110.79 142.726 111.193 142.506 111.649C142.285 112.105 142.155 112.603 142.122 113.113L142.121 113.117C142.11 113.227 142.062 113.33 141.986 113.406C141.909 113.483 141.81 113.528 141.705 113.535C141.599 113.541 141.496 113.508 141.411 113.441C141.327 113.374 141.268 113.278 141.245 113.17C141.067 112.268 140.78 111.395 140.389 110.572C140.025 109.78 139.47 109.103 138.781 108.607C138.617 108.497 138.441 108.406 138.257 108.338C138.176 108.305 138.092 108.282 138.006 108.267L137.686 108.22C137.283 108.159 136.872 108.173 136.473 108.261C136.09 108.346 135.732 108.524 135.427 108.781C135.129 109.037 134.892 109.363 134.736 109.734L134.717 109.78C134.677 109.879 134.602 109.958 134.507 109.998C134.413 110.038 134.307 110.037 134.213 109.995C134.181 109.98 134.152 109.962 134.125 109.94C133.896 109.776 133.63 109.68 133.354 109.661C133.079 109.643 132.803 109.703 132.557 109.835C131.984 110.049 131.503 110.475 131.204 111.034C131.049 111.296 130.974 111.602 130.989 111.91C131.003 112.219 131.107 112.515 131.286 112.759C131.726 113.259 132.293 113.616 132.92 113.786L132.935 113.791C132.958 113.798 132.978 113.814 132.992 113.835C133.375 114.437 133.678 115.091 133.892 115.78Z" fill="#C3F53C"/>
<path d="M130.757 115.447C130.508 114.906 130.066 114.491 129.528 114.293C129.005 114.135 128.445 114.179 127.951 114.418C127.713 114.495 127.499 114.639 127.332 114.834C127.164 115.029 127.05 115.268 127.001 115.526C126.978 116.065 127.118 116.598 127.399 117.049C127.682 117.548 128.019 118.01 128.403 118.426C128.496 118.534 128.594 118.633 128.691 118.733L129.006 119.024C129.231 119.229 129.448 119.438 129.663 119.648C130.525 120.49 131.33 121.373 132.134 122.27C132.194 122.337 132.234 122.422 132.248 122.513L132.253 122.544C132.305 122.829 132.394 123.106 132.515 123.367C132.769 123.927 133.131 124.425 133.577 124.83C133.804 125.047 134.03 125.192 134.333 125.437C134.889 125.897 135.357 126.462 135.714 127.105C136.074 127.735 136.341 128.421 136.505 129.136L136.484 129.066C136.695 129.685 137.093 130.213 137.616 130.572C138.174 130.915 138.808 131.099 139.455 131.104C140.133 131.12 140.81 131.046 141.471 130.884C142.147 130.729 142.81 130.516 143.453 130.249C142.849 130.623 142.21 130.933 141.547 131.172C140.873 131.421 140.171 131.572 139.458 131.622C138.71 131.679 137.96 131.522 137.289 131.167C136.95 130.968 136.645 130.71 136.388 130.404C136.139 130.095 135.932 129.751 135.772 129.383L135.764 129.36L135.751 129.313C135.579 128.699 135.325 128.114 134.997 127.576C134.672 127.044 134.263 126.575 133.788 126.189C133.574 126.016 133.243 125.8 132.984 125.557C132.711 125.315 132.463 125.043 132.244 124.747C132.02 124.45 131.83 124.127 131.676 123.783C131.513 123.425 131.401 123.044 131.342 122.651L131.461 122.925C130.683 122.033 129.88 121.153 129.075 120.293C128.872 120.08 128.668 119.869 128.46 119.667L128.131 119.341C128.025 119.223 127.917 119.106 127.819 118.984C127.417 118.5 127.072 117.966 126.791 117.394C126.463 116.794 126.338 116.094 126.439 115.409C126.475 115.229 126.54 115.057 126.629 114.899C126.725 114.75 126.834 114.611 126.954 114.483L127.358 114.189L127.791 114.002C128.384 113.78 129.033 113.8 129.613 114.057C129.884 114.193 130.126 114.387 130.323 114.626C130.519 114.865 130.667 115.145 130.757 115.447Z" fill="#C3F53C"/>
<path d="M131.798 122.598C131.656 122.055 131.666 121.481 131.826 120.944C131.903 120.664 132.039 120.406 132.225 120.19C132.316 120.079 132.428 119.99 132.554 119.928C132.68 119.866 132.817 119.833 132.956 119.831C132.75 119.967 132.579 120.155 132.458 120.379C132.34 120.594 132.248 120.825 132.184 121.064C132.035 121.549 131.945 122.062 131.798 122.598Z" fill="#C3F53C"/>
<path d="M132.895 113.909C133.215 113.826 133.475 113.768 133.752 113.711C134.042 113.642 134.337 113.602 134.633 113.59C134.432 113.859 134.144 114.04 133.824 114.1C133.665 114.139 133.5 114.142 133.34 114.109C133.18 114.077 133.028 114.008 132.895 113.909Z" fill="#C3F53C"/>
<path d="M134.591 109.599C134.586 110.025 134.639 110.449 134.749 110.859C134.846 111.268 135.053 111.638 135.344 111.927C135.498 112.064 135.677 112.166 135.871 112.228C136.064 112.289 136.267 112.309 136.467 112.285C136.675 112.267 136.882 112.231 137.085 112.177L137.683 111.949L137.103 112.235C136.9 112.31 136.691 112.368 136.479 112.407C136.258 112.453 136.032 112.451 135.812 112.402C135.593 112.352 135.385 112.257 135.202 112.12C134.842 111.827 134.571 111.43 134.419 110.978C134.258 110.537 134.159 110.074 134.126 109.603C134.124 109.57 134.127 109.538 134.136 109.507C134.146 109.476 134.161 109.447 134.18 109.422C134.2 109.397 134.225 109.377 134.252 109.362C134.28 109.347 134.309 109.338 134.34 109.336C134.371 109.333 134.402 109.337 134.431 109.347C134.46 109.357 134.487 109.374 134.511 109.395C134.534 109.416 134.553 109.442 134.567 109.471C134.58 109.501 134.589 109.532 134.591 109.565C134.591 109.572 134.591 109.58 134.591 109.587L134.591 109.599Z" fill="#C3F53C"/>
<path d="M136.463 112.368C136.786 112.886 137.07 113.429 137.315 113.992C137.589 114.56 137.777 115.169 137.871 115.798C137.897 115.915 137.95 116.023 138.025 116.114C138.099 116.205 138.194 116.275 138.3 116.319C138.543 116.448 138.804 116.536 139.073 116.58C139.347 116.633 139.629 116.635 139.904 116.587C140.188 116.562 140.452 116.422 140.641 116.196C140.57 116.338 140.472 116.463 140.352 116.563C140.233 116.663 140.095 116.735 139.948 116.776C139.654 116.868 139.348 116.904 139.042 116.883C138.73 116.868 138.424 116.791 138.139 116.654C137.974 116.585 137.827 116.473 137.715 116.328C137.602 116.182 137.526 116.009 137.496 115.824C137.402 115.237 137.252 114.662 137.048 114.107L136.463 112.368Z" fill="#C3F53C"/>
<path d="M142.136 112.996C142.239 113.761 142.469 114.501 142.817 115.182C142.904 115.345 143.002 115.5 143.112 115.647C143.252 115.823 143.375 116.013 143.481 116.214C143.588 116.417 143.673 116.632 143.735 116.855C143.799 117.09 143.829 117.284 143.873 117.478C143.896 117.651 143.941 117.82 144.007 117.98C144.098 118.125 144.212 118.251 144.345 118.352C144.476 118.461 144.626 118.54 144.787 118.587C144.948 118.634 145.115 118.646 145.28 118.624C145.628 118.548 145.941 118.348 146.168 118.059C146.422 117.761 146.639 117.43 146.812 117.073L146.802 117.105C146.918 116.528 146.996 115.943 147.033 115.354C147.084 114.764 147.047 114.168 146.923 113.59C147.087 114.163 147.166 114.759 147.156 115.358C147.159 115.958 147.121 116.558 147.043 117.152C147.042 117.161 147.04 117.17 147.036 117.178L147.034 117.184C146.874 117.579 146.667 117.951 146.416 118.289C146.158 118.663 145.787 118.933 145.364 119.054C145.141 119.103 144.912 119.105 144.688 119.06C144.465 119.014 144.252 118.923 144.063 118.79C143.868 118.662 143.696 118.497 143.557 118.304C143.481 118.197 143.425 118.076 143.394 117.946L143.307 117.64C143.228 117.265 143.092 116.905 142.902 116.576C142.806 116.421 142.696 116.276 142.573 116.143C142.427 115.975 142.293 115.795 142.174 115.606C141.718 114.856 141.395 114.026 141.219 113.155C141.206 113.092 141.204 113.027 141.214 112.963C141.224 112.9 141.246 112.839 141.278 112.784C141.311 112.73 141.353 112.682 141.403 112.645C141.453 112.607 141.509 112.581 141.568 112.566C141.628 112.552 141.69 112.55 141.75 112.561C141.81 112.571 141.868 112.594 141.92 112.629C141.971 112.663 142.016 112.707 142.052 112.76C142.087 112.812 142.112 112.872 142.126 112.935C142.129 112.946 142.131 112.958 142.133 112.97L142.136 112.996Z" fill="#C3F53C"/>
<path d="M141.279 121.584C141.297 121.584 141.312 121.589 141.33 121.589L141.372 121.618L141.279 121.584Z" fill="#C3F53C"/>
<path d="M150.706 120.922C142.723 119.643 135.201 116.379 133.334 115.531C133.01 115.381 132.664 115.293 132.312 115.271C130.611 115.178 130.026 115.761 129.868 116.364C129.797 116.655 129.817 116.963 129.925 117.241C130.033 117.519 130.223 117.753 130.467 117.908L138.77 123.417L138.774 123.412C139.193 122.882 139.677 122.414 140.215 122.02C140.018 122.456 139.777 122.867 139.494 123.246C140.267 123.022 141.084 123.025 141.855 123.256C151.467 124.216 153.883 122.099 153.883 122.099C152.852 121.084 150.706 120.922 150.706 120.922ZM143.695 120.084L145.646 121.584L141.172 120.878L137.144 118.031L143.695 120.084ZM146.203 122.628C144.54 122.466 142.881 122.265 141.223 122.069C141.19 122.063 141.159 122.052 141.13 122.035C139.597 121.06 138.068 120.075 136.553 119.065L134.282 117.541C133.538 117.016 132.781 116.511 132.042 115.972C132.837 116.413 133.617 116.879 134.402 117.33L136.739 118.736C138.282 119.663 139.806 120.623 141.33 121.589C142.965 121.8 144.61 122.016 146.245 122.261C147.895 122.506 149.549 122.761 151.193 123.064C149.525 122.957 147.862 122.795 146.203 122.628H146.203Z" fill="#C3F53C"/>
<path d="M141.372 121.618L141.279 121.584C141.297 121.584 141.312 121.589 141.33 121.589L141.372 121.618Z" fill="white"/>
<path d="M84.7724 51.3067C84.7724 51.3067 83.5794 50.5515 82.4659 51.894C82.4659 51.894 80.4776 48.9135 72.047 51.4946C72.047 51.4946 73.1605 53.74 73.9558 53.74C74.7511 53.74 72.4447 57.5996 70.2973 57.4318C70.2973 57.4318 66.6387 63.0534 69.4224 68.5073C72.166 73.8827 74.137 75.5902 76.8584 72.1035C76.9419 71.9953 77.035 71.8958 77.1365 71.8065C77.9192 71.1256 81.384 68.2946 82.612 70.4056C82.8735 70.8745 82.9483 71.4337 82.8201 71.9607C82.2596 74.4372 79.6386 83.5588 72.047 79.9184C72.047 79.9184 63.2 76.4184 65.2867 68.127C65.5098 67.2836 65.8334 66.4736 66.2497 65.7161C66.6511 64.9424 66.8985 64.0903 66.9767 63.2121C67.0548 62.3339 66.9622 61.4482 66.7045 60.6091C66.3846 59.4129 65.6632 58.3803 64.6747 57.7041C63.7164 57.0734 62.4531 56.7915 61.4961 58.5549C61.1 59.2885 60.8912 60.1179 60.8902 60.9622C60.8884 61.7349 61.0246 62.6826 61.6281 63.1374L60.8901 64.6477C60.4888 63.7862 59.9756 62.9879 59.3654 62.276C58.3434 61.1841 57.6869 59.7703 57.4955 58.2492C57.2253 55.8361 57.5506 52.2331 60.276 48.0344C60.276 48.0344 63.9346 40.3151 70.7744 40.4829C77.6143 40.6507 83.4998 42.5805 84.7724 51.3067Z" fill="black" fill-opacity="0.46"/>
<path d="M73.3193 61.3752C74.5074 61.0886 75.7282 60.9825 76.9447 61.0602C77.5574 61.0923 78.1656 61.1896 78.7598 61.3506C79.3662 61.4878 79.9298 61.785 80.3978 62.2143C79.8575 61.9496 79.2804 61.7781 78.6885 61.7065C78.1038 61.6178 77.5138 61.5533 76.9187 61.5252C75.7294 61.4474 74.5339 61.4414 73.3193 61.3752Z" fill="black"/>
<path d="M84.7725 61.2554C84.3374 61.3949 83.9348 61.6289 83.5906 61.9424C83.4275 62.0844 83.2945 62.2611 83.2005 62.461C83.1065 62.6609 83.0534 62.8794 83.0449 63.1024C83.0769 63.5598 83.1906 64.0068 83.3799 64.4197L83.9 65.7685C84.288 66.6812 84.5134 67.6615 84.5651 68.6602C84.5643 68.9234 84.5185 69.1842 84.4299 69.4302C84.3348 69.6792 84.1792 69.8974 83.9787 70.0628C83.5716 70.3333 83.091 70.4538 82.6121 70.4054C83.0611 70.365 83.4886 70.1846 83.8401 69.8872C83.9844 69.7248 84.0932 69.5311 84.1589 69.3196C84.2246 69.1082 84.2456 68.8841 84.2203 68.6631C84.186 68.1959 84.0961 67.7351 83.9527 67.2916C83.8191 66.8374 83.6593 66.3873 83.489 65.9388C83.3255 65.4871 83.1488 65.0379 82.9896 64.5752C82.9135 64.3417 82.8363 64.1088 82.7765 63.8625C82.7021 63.6079 82.6769 63.3402 82.7024 63.0751C82.729 62.8115 82.8104 62.5574 82.9408 62.3308C83.0713 62.1042 83.2475 61.9108 83.4569 61.7643C83.8507 61.4865 84.3018 61.312 84.7725 61.2554Z" fill="black"/>
<path d="M84.7723 51.3065C84.9213 52.247 85.0321 53.1925 85.1047 54.1432C85.1876 55.0922 85.2387 56.0441 85.2583 56.9989C85.2723 57.9534 85.2588 58.9098 85.1882 59.8669C85.1467 60.8424 84.9401 61.8023 84.5783 62.7011C84.573 62.7123 84.5663 62.7226 84.5583 62.7318C84.2791 63.0488 84.0171 63.3822 83.7735 63.7304C83.6526 63.9047 83.545 64.0889 83.4518 64.2813C83.3481 64.4686 83.3067 64.687 83.3339 64.902C83.2701 64.6857 83.2816 64.4525 83.3665 64.2444C83.4396 64.0345 83.5286 63.8311 83.6325 63.6362C83.8403 63.2476 84.0804 62.8794 84.35 62.5357L84.3301 62.5662C84.4842 62.137 84.5868 61.6891 84.6356 61.2329C84.7046 60.7728 84.7325 60.3029 84.7653 59.8347C84.8179 58.8947 84.8271 57.9491 84.8322 57.003C84.8321 55.1093 84.7927 53.2122 84.7723 51.3065Z" fill="black"/>
<path d="M80.0005 67.7521C79.9166 67.9342 79.8488 68.1241 79.7979 68.3194C79.7462 68.4998 79.7348 68.6904 79.7648 68.8762C79.7895 69.0603 79.8658 69.2324 79.9838 69.3705C80.1088 69.523 80.2475 69.6621 80.3982 69.786C80.3019 69.7559 80.2072 69.7201 80.1146 69.6788C80.0245 69.6265 79.9397 69.5648 79.8612 69.4946C79.6971 69.3447 79.5864 69.1402 79.5472 68.915C79.5193 68.6918 79.5509 68.4649 79.6385 68.2597C79.7202 68.0632 79.8442 67.8894 80.0005 67.7521Z" fill="black"/>
<path d="M61.6279 63.1372C61.9032 63.5017 62.1229 63.9093 62.2789 64.3453C62.3626 64.5679 62.423 64.7994 62.4593 65.0357C62.4789 65.1596 62.4866 65.2852 62.4825 65.4107L62.4802 65.5073L62.4856 65.5597C62.4836 65.5938 62.4907 65.6279 62.506 65.6579C62.5743 65.8114 62.6948 65.9322 62.8436 65.9962C63.0202 66.0915 63.2063 66.1658 63.3984 66.218C63.807 66.3342 64.2272 66.3985 64.6502 66.4096C64.2324 66.5823 63.7796 66.6394 63.3349 66.5755C63.1029 66.5506 62.8757 66.4891 62.6608 66.3933C62.5344 66.3415 62.419 66.2639 62.3212 66.1649C62.2233 66.0659 62.145 65.9475 62.0908 65.8164C62.0622 65.7425 62.0483 65.6633 62.0498 65.5836L62.0482 65.4659L62.0516 65.3924C62.0565 65.2909 62.0544 65.1891 62.0451 65.088C62.0275 64.873 61.9957 64.6596 61.9499 64.4493C61.8597 64.0182 61.741 63.5848 61.6279 63.1372Z" fill="black"/>
<path d="M60.8901 64.6475C60.7126 65.3261 60.4624 65.9812 60.1442 66.6C59.8327 67.228 59.4568 67.8179 59.023 68.3591C58.5891 68.9105 58.0744 69.3852 57.4984 69.7653C56.921 70.143 56.26 70.355 55.5811 70.3805C56.2025 70.1835 56.7863 69.8731 57.3061 69.4634C57.8147 69.0506 58.2779 68.5789 58.6867 68.0571C59.1067 67.536 59.495 66.9873 59.8492 66.4144C60.2057 65.839 60.5598 65.2554 60.8901 64.6475Z" fill="black"/>
<path d="M66.7183 84.2813C67.2208 84.0488 67.696 83.7554 68.1343 83.407C68.5692 83.0645 68.9817 82.6914 69.3691 82.2904C69.7686 81.9013 70.1267 81.4662 70.4987 81.0403L71.0403 80.3807C71.2166 80.1556 71.3925 79.9289 71.5865 79.7115C71.4758 79.9837 71.347 80.2466 71.2185 80.5111C71.0731 80.7636 70.9301 81.0201 70.7702 81.2646C70.4477 81.7546 70.081 82.2105 69.6753 82.6261C69.2677 83.045 68.8127 83.4095 68.3208 83.7113C67.833 84.0237 67.2858 84.2184 66.7183 84.2813Z" fill="black"/>
<path d="M58.7613 68.2079C58.3655 67.5891 57.876 67.0433 57.3123 66.5922C57.1949 66.4828 57.0528 66.4073 56.8996 66.373C56.7464 66.3387 56.5875 66.3468 56.4381 66.3965C56.1743 66.5856 55.985 66.8698 55.9056 67.1956C55.797 67.5431 55.7187 67.9003 55.6717 68.2628C55.6481 68.4432 55.6271 68.6308 55.6117 68.8042C55.6126 68.9693 55.6263 69.1633 55.642 69.3438C55.7105 70.0837 55.8405 70.8158 56.0306 71.5317C56.3806 72.9883 56.9244 74.3853 57.6458 75.6811C58.3766 76.9764 59.2509 78.1753 60.2502 79.2527C60.7513 79.7874 61.2721 80.3022 61.8006 80.8038C62.3496 81.2816 62.8741 81.7948 63.4455 82.2335C63.7212 82.4684 64.0251 82.659 64.3129 82.8739C64.6177 83.0588 64.9103 83.2687 65.2277 83.4257C65.8411 83.7773 66.4935 84.0471 67.17 84.2288C68.5211 84.6069 69.9568 84.4479 71.2039 83.782C72.4573 83.0763 73.51 82.0314 74.2541 80.7546C74.2568 80.7491 74.2615 80.745 74.2671 80.7431C74.2727 80.7412 74.2787 80.7418 74.284 80.7446C74.2888 80.7478 74.2924 80.7526 74.2942 80.7583C74.2959 80.7641 74.2957 80.7703 74.2935 80.7758C73.6463 82.1622 72.6291 83.3188 71.367 84.1033C70.7206 84.4901 70.0096 84.7417 69.2729 84.8442C68.5338 84.9363 67.785 84.886 67.0629 84.6959C66.346 84.5163 65.656 84.2333 65.0122 83.855C64.6836 83.6828 64.3852 83.4599 64.0734 83.2608C63.7807 83.0332 63.4711 82.8284 63.1934 82.5819C62.6114 82.1207 62.1018 81.582 61.5633 81.0759C61.2886 80.8294 61.0558 80.5352 60.8036 80.264C60.5606 79.9829 60.2977 79.7225 60.072 79.4253C59.1304 78.277 58.2753 77.0529 57.5145 75.764C56.7399 74.4754 56.1229 73.0886 55.6783 71.6365C55.4613 70.9019 55.3195 70.1448 55.2555 69.3782C55.2434 69.1818 55.2324 68.9986 55.2365 68.7856C55.2576 68.5838 55.2834 68.396 55.3128 68.2027C55.3713 67.8173 55.4634 67.4384 55.5879 67.0708C55.644 66.868 55.7378 66.679 55.8638 66.5147C55.9898 66.3505 56.1456 66.2144 56.322 66.1144C56.5203 66.0323 56.7399 66.0276 56.9412 66.1011C57.1243 66.1672 57.2952 66.266 57.4466 66.3931C58.0024 66.8926 58.4616 67.5006 58.7991 68.1837C58.8006 68.1864 58.8015 68.1893 58.8018 68.1923C58.8022 68.1954 58.802 68.1984 58.8012 68.2014C58.8005 68.2043 58.7991 68.2071 58.7974 68.2095C58.7956 68.2119 58.7934 68.2139 58.7909 68.2154C58.7859 68.2181 58.7802 68.2188 58.7748 68.2174C58.7693 68.2161 58.7646 68.2127 58.7613 68.2079Z" fill="#C3F53C"/>
<path d="M60.1052 66.2319C59.3951 65.7706 58.6031 65.4675 57.7778 65.3413C56.9647 65.1846 56.1254 65.3433 55.4145 65.7879C55.0792 66.0337 54.7973 66.3518 54.5875 66.7212L53.8659 67.8145C53.3883 68.5576 52.8535 69.258 52.267 69.9085C52.2533 69.9227 52.237 69.9338 52.219 69.9409C52.201 69.9481 52.1818 69.9512 52.1626 69.9501L52.1519 69.9494C49.1797 69.7637 46.1973 69.6893 43.2227 69.7104C41.7351 69.7235 40.2491 69.7864 38.7716 69.9088C37.3055 69.9944 35.8539 70.2602 34.4462 70.7009L34.4213 70.7081L34.3873 70.7158C33.6082 70.9261 32.8661 71.2669 32.1892 71.7251C31.8371 71.9501 31.4983 72.1975 31.1747 72.4659L30.6843 72.864C30.5261 73.0039 30.3769 73.1563 30.2228 73.3017C28.9947 74.4857 27.9036 75.8188 26.9723 77.2731C25.103 80.2062 23.5751 83.366 22.4217 86.6843C22.1366 87.5169 21.8244 88.3389 21.5613 89.1798L20.8085 91.7166C20.5537 92.5518 20.3259 93.4371 20.0292 94.2829C19.7406 95.1371 19.403 95.9632 19.0799 96.7833L18.0848 99.2476L17.5667 100.476C17.3901 100.9 17.1933 101.315 16.977 101.719C16.9331 101.795 16.8832 101.866 16.8279 101.932C16.8595 101.934 16.8622 101.857 16.8639 101.888C16.8589 101.936 16.8608 101.984 16.8696 102.031C16.9027 102.205 16.9594 102.372 17.0379 102.529C17.2116 102.878 17.4434 103.193 17.7223 103.456C18.292 103.996 19.0045 104.339 19.7643 104.441L19.4656 105.205C18.997 104.819 18.5534 104.4 18.1379 103.952C17.9102 103.71 17.7116 103.439 17.5467 103.146C17.497 103.051 17.4575 102.95 17.429 102.845C17.414 102.776 17.4039 102.706 17.3987 102.635C17.3987 102.543 17.4136 102.451 17.4428 102.364C17.4762 102.27 17.5297 102.186 17.5993 102.118C17.6315 102.086 17.6655 102.057 17.7009 102.029C17.7317 102.01 17.7617 101.995 17.7929 101.98C17.8975 101.929 18.0091 101.896 18.1235 101.883C18.4504 101.858 18.779 101.882 19.0993 101.955C19.3987 102.013 19.6852 102.089 19.9706 102.168L20.8215 102.454L21.6446 102.802C23.7944 103.825 25.7011 105.184 27.686 106.379C29.6579 107.594 31.6974 108.683 33.7933 109.639C35.8961 110.584 38.0454 111.409 40.2318 112.112L40.2344 112.113C40.2943 112.132 40.3461 112.173 40.3813 112.228C40.4164 112.283 40.4327 112.348 40.4275 112.414C40.2382 114.668 40.1615 116.931 40.1977 119.193C40.2126 120.318 40.3037 121.441 40.4704 122.552C40.5497 123.094 40.6973 123.623 40.9095 124.123C41.0082 124.349 41.1559 124.547 41.3407 124.701C41.388 124.722 41.4339 124.746 41.4796 124.771C41.528 124.787 41.5795 124.786 41.6289 124.798C41.74 124.812 41.8916 124.804 42.021 124.807L54.9462 124.845C59.2546 124.867 63.5627 124.842 67.871 124.837L80.796 124.791L80.6469 124.861C81.527 123.883 82.4902 122.992 83.5245 122.2C84.5565 121.396 85.6776 120.728 86.8628 120.21C88.0608 119.678 89.3477 119.406 90.6474 119.408C91.3069 119.421 91.9622 119.521 92.5979 119.707L94.3885 120.34C94.987 120.545 95.587 120.745 96.1883 120.93C96.7666 121.135 97.365 121.271 97.9721 121.336C98.6464 121.416 99.2983 121.639 99.8886 121.992C100.199 122.167 100.48 122.396 100.719 122.668C100.852 122.819 100.956 122.997 101.023 123.191C101.09 123.385 101.12 123.591 101.11 123.797C101.127 124.149 101.115 124.501 101.076 124.85C101.035 125.256 100.872 125.637 100.612 125.939C100.332 126.231 99.9624 126.409 99.5698 126.441C99.2243 126.48 98.8754 126.469 98.533 126.407C98.2065 126.353 97.8838 126.275 97.5673 126.175L96.6637 125.886C96.3748 125.799 96.081 125.732 95.7839 125.684C95.538 125.631 95.284 125.633 95.0391 125.691L95.1284 125.043C96.3239 125.926 97.728 126.443 99.1849 126.536C99.9213 126.577 100.66 126.533 101.387 126.403C102.138 126.294 102.882 126.161 103.639 126.029C104.02 125.965 104.399 125.895 104.817 125.867C105.047 125.846 105.278 125.861 105.504 125.909C105.776 125.971 106.022 126.124 106.205 126.346C106.363 126.543 106.483 126.77 106.561 127.015C106.783 127.672 106.816 128.383 106.656 129.06C106.543 129.509 106.343 129.929 106.068 130.291C105.793 130.654 105.449 130.952 105.058 131.167C104.325 131.563 103.528 131.81 102.709 131.894L103.066 131.609C102.875 132.07 102.638 132.508 102.358 132.916C102.08 133.327 101.757 133.702 101.395 134.032C101.015 134.368 100.582 134.632 100.116 134.813C99.6364 134.983 99.1295 135.051 98.625 135.012L99.0069 134.847C98.2306 135.801 97.4689 136.738 96.5945 137.64C96.4829 137.752 96.3649 137.865 96.2335 137.977C96.0983 138.085 95.9567 138.185 95.8097 138.274C95.5337 138.439 95.2469 138.582 94.9515 138.703C94.3754 138.939 93.78 139.119 93.1728 139.24C91.9704 139.477 90.7427 139.536 89.5248 139.417C89.2212 139.395 88.9212 139.343 88.6192 139.307L87.7244 139.142L86.8858 138.997L86.0321 138.903C83.7083 138.777 81.3787 138.856 79.0675 139.14C76.7402 139.389 74.4196 139.76 72.1104 140.191C70.9647 140.406 69.8299 140.69 68.674 140.958C67.5229 141.228 66.3679 141.491 65.2098 141.738C62.8925 142.226 60.5651 142.671 58.224 143.024C53.5427 143.757 48.8192 144.152 44.0868 144.204C43.4953 144.206 42.9041 144.229 42.3127 144.215L40.5385 144.173C39.3553 144.164 38.1746 144.075 36.9938 144.001C35.8114 143.948 34.6354 143.804 33.458 143.683C32.8667 143.614 32.2875 143.576 31.6845 143.477C31.0873 143.379 30.4962 143.244 29.914 143.074C27.5627 142.404 25.4299 141.069 23.7466 139.212C22.0612 137.345 20.9954 134.952 20.7093 132.391C20.1912 127.428 19.9832 122.459 19.8652 117.486C19.7624 112.514 19.7495 107.543 19.8266 102.572C19.8267 102.559 19.8317 102.547 19.8405 102.538C19.8493 102.528 19.8612 102.523 19.8735 102.524C19.8858 102.524 19.8976 102.529 19.9062 102.538C19.9148 102.548 19.9196 102.56 19.9195 102.573C19.9392 107.542 20.0477 112.509 20.2449 117.473C20.4533 122.432 20.7104 127.401 21.2948 132.311C21.5948 134.725 22.6303 136.971 24.2453 138.71C25.8545 140.45 27.8834 141.694 30.1134 142.308C30.6674 142.465 31.2297 142.588 31.7974 142.675C32.3593 142.763 32.9573 142.799 33.537 142.861C34.7048 142.97 35.8706 143.103 37.0432 143.145C38.2141 143.207 39.3843 143.285 40.5574 143.283L42.3159 143.309C42.902 143.318 43.4883 143.289 44.0744 143.282L45.8327 143.244L47.5892 143.148C48.761 143.099 49.9294 142.991 51.0983 142.892C52.2686 142.811 53.4321 142.647 54.5992 142.527C55.7629 142.374 56.9272 142.223 58.0872 142.039C60.4092 141.684 62.7182 141.238 65.0192 140.749C66.1695 140.501 67.3167 140.238 68.4645 139.967C69.6081 139.699 70.7658 139.407 71.9392 139.184C74.2674 138.745 76.6074 138.366 78.9669 138.109C81.337 137.813 83.7273 137.739 86.1098 137.888L87.0127 137.992L87.9166 138.152L88.761 138.313C89.0439 138.348 89.3257 138.398 89.6095 138.421C90.7398 138.537 91.88 138.488 92.9976 138.275C93.5486 138.168 94.0892 138.008 94.6126 137.797C94.8669 137.694 95.114 137.573 95.352 137.434C95.4601 137.368 95.5646 137.296 95.6647 137.218C95.7629 137.135 95.8636 137.041 95.9658 136.939C96.7802 136.108 97.5614 135.162 98.3218 134.235C98.3662 134.18 98.4215 134.137 98.4837 134.108C98.5459 134.08 98.6135 134.066 98.6814 134.068L98.7039 134.069C99.0825 134.098 99.4629 134.049 99.8236 133.924C100.188 133.783 100.528 133.578 100.827 133.316C101.134 133.037 101.409 132.721 101.645 132.373C101.885 132.026 102.091 131.654 102.258 131.263L102.259 131.26C102.291 131.185 102.34 131.119 102.403 131.07C102.465 131.02 102.539 130.989 102.616 130.978C103.319 130.911 104.005 130.706 104.637 130.374C104.927 130.222 105.184 130.006 105.39 129.741C105.596 129.476 105.747 129.169 105.832 128.838C105.916 128.505 105.933 128.156 105.883 127.815C105.852 127.5 105.748 127.198 105.579 126.935C105.512 126.847 105.418 126.788 105.313 126.769C105.164 126.738 105.011 126.73 104.86 126.743C104.516 126.761 104.14 126.824 103.767 126.882C103.017 127.006 102.255 127.133 101.492 127.235C100.711 127.364 99.9187 127.402 99.1297 127.348C97.5208 127.229 95.9758 126.636 94.6713 125.635L94.6644 125.63C94.6132 125.59 94.5733 125.536 94.5492 125.474C94.525 125.412 94.5175 125.344 94.5274 125.277C94.5374 125.211 94.5643 125.149 94.6055 125.097C94.6466 125.046 94.7003 125.008 94.7606 124.986C95.1271 124.871 95.5152 124.854 95.8893 124.939C96.2159 124.994 96.5389 125.072 96.8561 125.172L97.7622 125.471C98.0491 125.566 98.3418 125.64 98.6383 125.693C99.2096 125.796 99.8316 125.785 100.137 125.448C100.459 125.117 100.479 124.461 100.465 123.806C100.467 123.732 100.464 123.657 100.456 123.583C100.455 123.529 100.444 123.475 100.423 123.426C100.382 123.308 100.319 123.2 100.239 123.107C100.049 122.89 99.8264 122.707 99.5802 122.566C99.0713 122.256 98.5094 122.054 97.9266 121.973C97.2776 121.899 96.6386 121.748 96.0217 121.522C95.4129 121.328 94.8108 121.12 94.2106 120.907L92.4166 120.251C91.836 120.079 91.2375 119.983 90.6347 119.964C89.4039 119.95 88.1828 120.195 87.0432 120.686C84.7411 121.714 82.665 123.232 80.9448 125.146L80.9383 125.153C80.9197 125.173 80.8975 125.189 80.873 125.199C80.8485 125.21 80.8222 125.216 80.7956 125.216L67.8719 125.17C63.564 125.164 59.256 125.139 54.9482 125.162L42.0248 125.199C41.8854 125.197 41.7665 125.208 41.6101 125.195C41.5266 125.187 41.4438 125.173 41.3624 125.152L41.1359 125.041C40.8897 124.852 40.6915 124.601 40.559 124.312C40.3224 123.778 40.1552 123.213 40.062 122.632C39.8765 121.501 39.7682 120.356 39.738 119.209C39.6714 116.926 39.7191 114.642 39.8807 112.365L40.0763 112.667C37.8594 111.99 35.6786 111.187 33.5434 110.262C31.4107 109.324 29.3335 108.252 27.3229 107.051C25.3035 105.88 23.3812 104.52 21.333 103.561L20.5564 103.236L19.765 102.974C19.4949 102.901 19.2242 102.83 18.9582 102.78C18.7166 102.726 18.4692 102.705 18.2224 102.718C18.1894 102.727 18.1317 102.734 18.1397 102.739L18.1343 102.738C18.1426 102.736 18.15 102.731 18.1556 102.724C18.1595 102.711 18.1866 102.691 18.1913 102.662C18.2053 102.546 18.1908 102.655 18.2522 102.744C18.3849 102.969 18.542 103.177 18.7203 103.365C19.1096 103.78 19.5244 104.169 19.9622 104.527L19.966 104.53C20.0359 104.588 20.0858 104.668 20.1081 104.759C20.1304 104.85 20.1239 104.946 20.0895 105.032C20.0552 105.119 19.9949 105.191 19.918 105.238C19.841 105.284 19.7516 105.303 19.6635 105.291C18.7353 105.172 17.8641 104.755 17.167 104.097C16.8142 103.766 16.5209 103.37 16.301 102.929C16.1811 102.691 16.0961 102.436 16.0487 102.172C16.0178 102 16.0221 101.823 16.0613 101.653C16.0934 101.527 16.1533 101.411 16.236 101.313C16.2452 101.286 16.2391 101.311 16.269 101.254C16.4514 100.921 16.6364 100.501 16.8109 100.108L17.3289 98.8975L18.3313 96.4503C18.6603 95.6275 18.9955 94.8184 19.2779 93.9954C19.5715 93.1709 19.79 92.3361 20.0561 91.4769L20.8296 88.9176C21.0999 88.0689 21.4202 87.2371 21.713 86.3962C22.9044 83.0252 24.4763 79.818 26.3948 76.8437C26.8837 76.1025 27.408 75.388 27.9655 74.7029C28.5336 74.0228 29.1416 73.381 29.7861 72.7814C29.9483 72.6322 30.1051 72.4766 30.272 72.333L30.7901 71.9229C31.1339 71.6457 31.4933 71.3906 31.8663 71.159C32.6184 70.6626 33.444 70.3029 34.3089 70.0948L34.2502 70.1097C35.7099 69.6699 37.2136 69.4131 38.7303 69.3446C40.2278 69.2408 41.7251 69.1981 43.2206 69.205C46.2122 69.2117 49.196 69.3716 52.1754 69.6223L52.0605 69.6631C52.6436 69.0402 53.178 68.3686 53.6586 67.655L54.3992 66.583C54.6324 66.1955 54.9402 65.8641 55.3028 65.6104C55.6693 65.361 56.0868 65.207 56.5207 65.1608C56.9459 65.1075 57.376 65.1165 57.7989 65.1874C58.6392 65.335 59.4419 65.6629 60.1573 66.1508C60.1677 66.1577 60.175 66.1687 60.1777 66.1813C60.1804 66.1938 60.1783 66.207 60.1718 66.218C60.1653 66.2289 60.155 66.2367 60.1431 66.2397C60.1312 66.2427 60.1187 66.2406 60.1082 66.2339L60.1052 66.2319Z" fill="#C3F53C"/>
<path d="M38.2861 74.5483C38.8654 74.7216 39.391 75.0531 39.8099 75.5094C40.2416 75.9584 40.5868 76.4913 40.8266 77.0787C41.0669 77.6627 41.202 78.2889 41.225 78.9251C41.2365 79.2382 41.2213 79.5518 41.1796 79.8621C41.129 80.1699 41.0518 80.4723 40.9491 80.7653C40.846 80.4621 40.7995 80.1695 40.7237 79.8835C40.6425 79.5993 40.5938 79.3164 40.5034 79.0459C40.3593 78.5089 40.1826 77.9821 39.9745 77.4689C39.7657 76.9586 39.5215 76.4653 39.244 75.9928C38.9534 75.4909 38.6335 75.0084 38.2861 74.5483Z" fill="#C3F53C"/>
<path d="M40.3129 86.2952C40.4918 88.4709 40.5792 90.6462 40.6343 92.8212C40.6951 94.9962 40.7016 97.1709 40.6977 99.3456C40.6763 101.52 40.6432 103.694 40.5561 105.868C40.4748 108.043 40.3604 110.216 40.1538 112.39C39.9736 110.214 39.8858 108.039 39.831 105.864C39.7704 103.688 39.7638 101.514 39.769 99.3392C39.7915 97.1647 39.8245 94.9904 39.9119 92.8163C39.9935 90.6422 40.1073 88.4684 40.3129 86.2952Z" fill="#C3F53C"/>
<path d="M82.8476 71.9208C84.5492 73.044 86.2196 74.2138 87.8587 75.4303C88.6791 76.0377 89.4928 76.6561 90.2998 77.2855L91.5007 78.2532C91.7113 78.4198 91.9097 78.603 92.0941 78.8012L92.3794 79.1155L92.6197 79.4368C93.2423 80.2836 93.8101 81.1735 94.3193 82.1007C94.8325 83.0142 95.332 83.9338 95.8177 84.8593C96.7776 86.7188 97.7661 88.5575 98.7832 90.3754C99.2919 91.2852 99.8104 92.189 100.339 93.0867L101.129 94.4325C101.363 94.8726 101.641 95.2848 101.959 95.6622C102.295 96.0105 102.696 96.3558 103.045 96.7893C103.458 97.2433 103.707 97.836 103.748 98.4638C103.716 99.1075 103.451 99.7136 103.006 100.155C102.816 100.358 102.616 100.55 102.407 100.731C102.22 100.89 102.038 101.057 101.861 101.229C101.503 101.576 101.174 101.94 100.839 102.331C100.499 102.728 100.146 103.113 99.7883 103.494C99.0659 104.255 98.2988 104.968 97.4915 105.627C96.6685 106.299 95.7726 106.866 94.8226 107.315C94.3244 107.537 93.8008 107.69 93.2651 107.77C92.7025 107.858 92.1282 107.805 91.5885 107.616C91.5024 107.588 91.4291 107.528 91.3826 107.447L91.3796 107.442C91.0308 106.832 90.649 106.225 90.2628 105.63C89.877 105.032 89.4729 104.449 89.0506 103.88C88.6266 103.316 88.1734 102.776 87.6933 102.264C87.231 101.738 86.6648 101.325 86.0346 101.054L86.0312 101.053C86.0201 101.049 86.0109 101.04 86.0055 101.029C86.0001 101.018 85.9988 101.006 86.0019 100.994C86.005 100.982 86.0123 100.972 86.0222 100.965C86.0322 100.959 86.0442 100.956 86.0557 100.959C86.7442 101.146 87.3809 101.503 87.9134 102C88.4595 102.466 88.9713 102.975 89.4443 103.523C90.3948 104.609 91.2682 105.767 92.0574 106.989L91.8487 106.815C92.7334 107.005 93.6534 106.864 94.4501 106.416C95.3199 105.978 96.1374 105.434 96.8857 104.793C97.6611 104.158 98.4025 103.479 99.1064 102.757C99.4625 102.398 99.815 102.033 100.156 101.656C100.501 101.273 100.873 100.882 101.263 100.525C101.459 100.346 101.659 100.171 101.866 100.005C102.054 99.8395 102.232 99.6984 102.389 99.5301C102.693 99.2535 102.892 98.8698 102.948 98.4503C102.924 98.015 102.759 97.6014 102.482 97.2784C102.197 96.8921 101.838 96.5422 101.489 96.122C101.397 96.0121 101.311 95.897 101.231 95.777L101.03 95.4175L100.667 94.7159L99.9588 93.3164C99.4914 92.3815 99.0139 91.4531 98.5265 90.5313C97.549 88.6891 96.5185 86.8776 95.4023 85.1253C94.2958 83.3756 93.1733 81.6042 91.9745 79.9876L91.7479 79.6888L91.5115 79.434C91.3494 79.2511 91.1736 79.0822 90.9858 78.9291L89.8178 77.9501L87.4595 75.9966C85.8837 74.6957 84.3283 73.3636 82.7931 72.0002C82.784 71.9922 82.7782 71.9809 82.7767 71.9685C82.7753 71.9561 82.7783 71.9437 82.7853 71.9336C82.7922 71.9235 82.8025 71.9166 82.8141 71.9142C82.8257 71.9119 82.8377 71.9142 82.8477 71.9208L82.8476 71.9208Z" fill="#C3F53C"/>
<path d="M89.0671 87.7494C88.2537 90.9739 87.4858 94.2063 86.8443 97.4513C86.5142 99.0598 86.2838 100.689 86.1544 102.329C86.1105 103.118 86.106 103.989 86.0404 104.833C85.9764 105.693 85.84 106.546 85.6325 107.381C85.1443 109.032 84.3619 110.569 83.3275 111.91C82.8495 112.583 82.343 113.233 81.8688 113.886C81.6407 114.211 81.4093 114.533 81.2045 114.88C80.9848 115.215 80.7862 115.567 80.5886 115.92C79.8105 117.355 79.1148 118.838 78.5053 120.36C77.8623 121.877 77.3078 123.435 76.7659 125.003C77.4559 121.725 78.5269 118.55 79.9547 115.549C80.3233 114.79 80.7456 114.062 81.2179 113.37C81.6864 112.687 82.1663 112.035 82.6185 111.36C83.57 110.099 84.2888 108.66 84.7379 107.118C84.9372 106.342 85.0707 105.549 85.1369 104.748C85.2108 103.932 85.2084 103.134 85.2795 102.26C85.4455 100.581 85.733 98.9171 86.1396 97.2838C86.9196 94.0424 87.8974 90.8576 89.0671 87.7494Z" fill="#C3F53C"/>
<path d="M102.662 99.8877C103.685 100.725 104.653 101.618 105.637 102.449C105.886 102.651 106.134 102.85 106.377 103.024L106.782 103.279C106.931 103.378 107.073 103.483 107.208 103.592C107.73 104.036 108.21 104.531 108.641 105.072C109.498 106.142 110.172 107.362 110.633 108.676C111.115 109.978 111.252 111.394 111.027 112.771C110.892 111.448 110.533 110.161 109.969 108.971C109.42 107.797 108.736 106.7 107.932 105.702C107.545 105.202 107.116 104.738 106.651 104.318C106.539 104.213 106.423 104.116 106.307 104.026L105.904 103.731C105.639 103.514 105.388 103.28 105.153 103.028C104.233 102.065 103.399 101.013 102.662 99.8877Z" fill="#C3F53C"/>
<path d="M92.4045 107.362C93.3182 108.654 93.9425 110.149 94.2307 111.733C94.2631 111.934 94.2905 112.138 94.3163 112.343C94.3343 112.541 94.3364 112.775 94.3599 112.944C94.3958 113.291 94.4741 113.631 94.5928 113.956C94.8519 114.651 95.184 115.313 95.583 115.93C95.9781 116.568 96.4128 117.179 96.8842 117.757C97.1119 118.055 97.3637 118.331 97.6056 118.617C97.8681 118.881 98.1074 119.174 98.3778 119.429C99.4084 120.533 100.643 121.402 102.005 121.983C101.246 121.901 100.508 121.675 99.8271 121.313C99.1465 120.948 98.5024 120.511 97.9046 120.009C96.7009 119.008 95.6551 117.812 94.806 116.466C94.3747 115.777 94.0245 115.036 93.7632 114.258C93.637 113.841 93.5647 113.408 93.5483 112.971C93.5361 112.75 93.5415 112.59 93.5415 112.396L93.5149 111.834C93.3483 110.295 92.9744 108.789 92.4045 107.362Z" fill="#C3F53C"/>
<path d="M102.662 119.941C102.755 119.31 102.963 118.703 103.273 118.154C103.578 117.6 103.949 117.088 104.376 116.632C104.808 116.184 105.287 115.79 105.804 115.457C106.061 115.292 106.326 115.142 106.599 115.008C106.878 114.887 107.156 114.77 107.44 114.672C106.947 115.033 106.461 115.38 105.999 115.757C105.539 116.13 105.101 116.532 104.688 116.961C104.281 117.394 103.904 117.858 103.562 118.35C103.213 118.848 102.912 119.381 102.662 119.941Z" fill="#C3F53C"/>
<path d="M104.339 121.06C105.371 119.319 106.502 117.645 107.725 116.047C108.337 115.247 108.973 114.465 109.632 113.701C110.303 112.942 111.014 112.223 111.761 111.547C112.523 110.842 113.38 110.26 114.304 109.821C114.803 109.599 115.341 109.491 115.883 109.502C116.439 109.517 116.982 109.681 117.461 109.978C118.353 110.585 119.035 111.478 119.407 112.527C119.601 113.026 119.741 113.546 119.824 114.078C119.928 114.628 119.917 115.196 119.794 115.742L119.645 115.398C120.69 115.961 121.697 116.57 122.695 117.204C123.691 117.838 124.674 118.497 125.621 119.212C126.589 119.908 127.486 120.708 128.298 121.599C128.708 122.059 129.056 122.577 129.332 123.137C129.636 123.734 129.707 124.432 129.533 125.084L129.538 125.066C129.406 125.605 129.123 126.09 128.726 126.458C128.51 126.64 128.259 126.77 127.991 126.84C127.722 126.909 127.442 126.915 127.171 126.858C126.668 126.75 126.189 126.539 125.762 126.238C125.352 125.955 124.965 125.637 124.604 125.287L125.227 125.003C125.209 125.676 125.073 126.338 124.825 126.957C124.581 127.583 124.217 128.148 123.755 128.616C123.293 129.078 122.75 129.441 122.158 129.688C121.908 129.803 121.664 129.932 121.427 130.076C121.318 130.141 121.214 130.215 121.114 130.295C121.077 130.325 121.042 130.358 121.009 130.395C120.984 130.417 120.991 130.444 121.014 130.357L120.856 129.888C121.145 130.153 121.385 130.473 121.561 130.832C121.75 131.201 121.848 131.613 121.848 132.032C121.848 132.45 121.75 132.863 121.562 133.231C121.39 133.581 121.165 133.899 120.894 134.171C120.35 134.711 119.66 135.057 118.92 135.161C118.577 135.205 118.231 135.222 117.885 135.212C117.513 135.212 117.143 135.15 116.789 135.029L117.118 135.03C116.036 135.383 114.924 135.625 113.797 135.751C112.673 135.873 111.541 135.866 110.418 135.732C109.834 135.674 109.26 135.531 108.713 135.308C108.409 135.184 108.133 134.992 107.906 134.745C107.678 134.499 107.504 134.203 107.394 133.879C107.233 133.23 107.308 132.541 107.602 131.946C107.733 131.658 107.904 131.392 108.107 131.156C108.324 130.869 108.636 130.681 108.98 130.627L108.941 130.632C109.103 130.607 109.267 130.592 109.431 130.589C109.592 130.585 109.753 130.591 109.913 130.607C110.241 130.635 110.561 130.726 110.858 130.874L110.619 131.169C110.471 130.893 110.356 130.598 110.275 130.292C110.192 129.988 110.155 129.672 110.165 129.355C110.176 129.036 110.261 128.724 110.414 128.447C110.569 128.181 110.78 127.956 111.031 127.788C111.041 127.781 111.054 127.779 111.066 127.781C111.078 127.784 111.089 127.791 111.095 127.802C111.102 127.813 111.104 127.825 111.102 127.837C111.1 127.849 111.094 127.86 111.085 127.868C110.868 128.046 110.691 128.275 110.57 128.536C110.456 128.793 110.402 129.075 110.413 129.358C110.425 129.643 110.48 129.924 110.576 130.191C110.669 130.458 110.791 130.712 110.94 130.948C110.963 130.983 110.975 131.025 110.973 131.068C110.972 131.11 110.957 131.151 110.933 131.185C110.908 131.219 110.873 131.243 110.834 131.254C110.795 131.266 110.754 131.264 110.716 131.249L110.701 131.243C110.438 131.142 110.161 131.086 109.882 131.077C109.739 131.072 109.597 131.075 109.454 131.088C109.315 131.099 109.176 131.12 109.039 131.149L109.021 131.152L109.001 131.154C108.806 131.225 108.637 131.359 108.519 131.537C108.364 131.74 108.238 131.965 108.145 132.205C107.946 132.658 107.913 133.172 108.05 133.649C108.137 133.867 108.267 134.062 108.432 134.222C108.597 134.382 108.792 134.503 109.005 134.576C109.489 134.748 109.993 134.851 110.503 134.882C111.566 134.967 112.634 134.933 113.689 134.778C114.743 134.641 115.782 134.397 116.792 134.052C116.895 134.015 117.006 134.014 117.109 134.049L117.121 134.053C117.667 134.179 118.23 134.204 118.783 134.124C119.318 134.051 119.818 133.804 120.212 133.416C120.599 133.06 120.842 132.562 120.89 132.023C120.892 131.765 120.835 131.51 120.724 131.281C120.609 131.039 120.455 130.821 120.269 130.635L120.236 130.603C120.18 130.549 120.139 130.48 120.117 130.403C120.095 130.326 120.093 130.244 120.111 130.166C120.148 130.004 120.226 129.855 120.338 129.738C120.406 129.663 120.48 129.594 120.56 129.532C120.693 129.428 120.834 129.333 120.979 129.249C121.251 129.091 121.531 128.95 121.818 128.826C122.318 128.634 122.778 128.34 123.172 127.963C123.56 127.584 123.872 127.127 124.092 126.619C124.315 126.11 124.449 125.563 124.488 125.003L124.49 124.974C124.494 124.901 124.518 124.83 124.559 124.77C124.601 124.71 124.657 124.664 124.723 124.637C124.788 124.611 124.859 124.604 124.928 124.619C124.997 124.633 125.06 124.668 125.11 124.72C125.431 125.052 125.776 125.358 126.142 125.634C126.484 125.906 126.873 126.106 127.287 126.223C127.475 126.277 127.672 126.286 127.863 126.249C128.055 126.213 128.236 126.131 128.395 126.011C128.72 125.735 128.96 125.362 129.084 124.941L129.089 124.923C129.252 124.39 129.213 123.81 128.978 123.307C128.746 122.767 128.432 122.269 128.05 121.835C127.27 120.945 126.401 120.147 125.458 119.455C123.557 118.073 121.532 116.891 119.412 115.926C119.355 115.899 119.309 115.852 119.281 115.793C119.253 115.734 119.245 115.667 119.259 115.602L119.263 115.582C119.333 115.122 119.313 114.652 119.203 114.202C119.102 113.728 118.952 113.268 118.754 112.83C118.4 111.965 117.806 111.234 117.05 110.731C116.677 110.518 116.263 110.398 115.838 110.38C115.414 110.363 114.992 110.449 114.604 110.631C113.755 111.027 112.964 111.55 112.256 112.184C111.512 112.818 110.803 113.494 110.13 114.21C109.444 114.92 108.781 115.659 108.137 116.416C106.857 117.94 105.611 119.505 104.416 121.116C104.412 121.121 104.407 121.125 104.402 121.128C104.397 121.132 104.391 121.134 104.385 121.135C104.379 121.136 104.373 121.135 104.367 121.134C104.361 121.132 104.355 121.129 104.35 121.125C104.341 121.118 104.335 121.107 104.333 121.095C104.331 121.083 104.333 121.07 104.339 121.06Z" fill="#C3F53C"/>
<path d="M113.67 113.592C113.675 114.5 113.784 115.403 113.996 116.282C114.105 116.698 114.28 117.092 114.512 117.447C114.732 117.782 115.062 118.017 115.438 118.106C115.826 118.204 116.23 118.2 116.616 118.092C117.016 117.994 117.396 117.818 117.734 117.573C118.438 117.057 119.046 116.409 119.529 115.662C119.187 116.532 118.642 117.296 117.945 117.884C117.586 118.2 117.164 118.427 116.71 118.547C116.257 118.668 115.784 118.68 115.326 118.581C114.847 118.459 114.429 118.15 114.156 117.718C113.907 117.307 113.733 116.851 113.645 116.373C113.486 115.453 113.494 114.509 113.67 113.592Z" fill="#C3F53C"/>
<path d="M120.51 122.262C121.393 122.296 122.252 122.575 123 123.072C123.377 123.313 123.726 123.599 124.041 123.924C124.356 124.245 124.63 124.608 124.857 125.003C124.527 124.701 124.209 124.402 123.871 124.13C123.539 123.855 123.19 123.601 122.828 123.371C122.468 123.139 122.094 122.93 121.708 122.748C121.319 122.559 120.918 122.397 120.51 122.262Z" fill="#C3F53C"/>
<path d="M110.78 131.059C110.985 131.277 111.222 131.46 111.48 131.602C111.732 131.756 111.987 131.9 112.245 132.041C112.762 132.321 113.286 132.59 113.813 132.853C114.864 133.391 115.928 133.906 116.955 134.541C115.801 134.257 114.679 133.839 113.612 133.295C113.075 133.025 112.556 132.716 112.061 132.369C111.54 132.047 111.1 131.598 110.78 131.059Z" fill="#C3F53C"/>
<path d="M118.972 124.388C119.154 124.493 119.313 124.637 119.438 124.811C119.511 124.903 119.563 125.012 119.591 125.128C119.62 125.244 119.623 125.365 119.602 125.483C119.536 125.717 119.398 125.921 119.21 126.063C119.04 126.201 118.854 126.315 118.656 126.403C118.566 126.443 118.478 126.49 118.394 126.544C118.314 126.585 118.237 126.632 118.164 126.684L117.963 126.87C117.903 126.939 117.847 127.013 117.797 127.09C117.585 127.401 117.458 127.768 117.43 128.15C117.377 128.527 117.431 128.912 117.584 129.257C117.738 129.602 117.985 129.891 118.294 130.088C118.37 130.143 118.454 130.183 118.543 130.208C118.631 130.238 118.716 130.28 118.807 130.305C118.995 130.343 119.185 130.368 119.376 130.378C119.573 130.383 119.77 130.376 119.966 130.356C120.162 130.32 120.36 130.289 120.563 130.261C120.376 130.339 120.185 130.414 119.99 130.483C119.791 130.541 119.589 130.586 119.385 130.618C119.175 130.637 118.963 130.638 118.753 130.621C118.646 130.602 118.541 130.576 118.437 130.544C118.33 130.523 118.226 130.484 118.13 130.429C117.719 130.233 117.387 129.891 117.19 129.464C117 129.039 116.923 128.568 116.968 128.101C117.013 127.634 117.178 127.189 117.446 126.813C117.514 126.72 117.588 126.632 117.669 126.55L117.934 126.331C118.12 126.218 118.317 126.123 118.52 126.05C118.875 125.964 119.185 125.737 119.385 125.416C119.415 125.328 119.425 125.234 119.417 125.142C119.408 125.049 119.38 124.959 119.335 124.88C119.24 124.696 119.117 124.53 118.972 124.388Z" fill="#C3F53C"/>
<path d="M115.207 114.991C115.261 115.248 115.336 115.501 115.43 115.745C115.508 115.977 115.647 116.181 115.831 116.333C115.923 116.402 116.028 116.449 116.138 116.471C116.249 116.494 116.363 116.49 116.472 116.461C116.592 116.438 116.71 116.406 116.826 116.366C116.942 116.319 117.056 116.264 117.18 116.221C117.083 116.309 116.976 116.385 116.872 116.469C116.756 116.534 116.635 116.59 116.51 116.636C116.376 116.684 116.234 116.699 116.094 116.679C115.954 116.659 115.82 116.606 115.703 116.523C115.489 116.338 115.337 116.086 115.271 115.804C115.2 115.54 115.178 115.264 115.207 114.991Z" fill="#C3F53C"/>
<path d="M115.632 114.672C115.881 114.598 116.139 114.561 116.398 114.564C116.662 114.565 116.925 114.609 117.176 114.694C117.438 114.785 117.666 114.959 117.829 115.194C117.97 115.437 118.018 115.727 117.965 116.007C117.935 115.75 117.841 115.507 117.693 115.301C117.534 115.117 117.329 114.983 117.102 114.914C116.625 114.762 116.13 114.68 115.632 114.672Z" fill="#C3F53C"/>
<path d="M119.184 129.422C119.276 129.223 119.416 129.053 119.59 128.93C119.683 128.862 119.788 128.815 119.898 128.791C120.009 128.766 120.123 128.766 120.234 128.789C120.445 128.861 120.631 128.999 120.765 129.186C120.82 129.28 120.878 129.372 120.925 129.468C120.961 129.571 121.002 129.669 121.03 129.773C120.894 129.609 120.773 129.447 120.638 129.305C120.512 129.169 120.355 129.07 120.182 129.016C120.01 128.973 119.829 128.998 119.673 129.086C119.497 129.176 119.333 129.289 119.184 129.422Z" fill="#C3F53C"/>
<path d="M111.027 130.508C111.039 130.125 111.132 129.748 111.299 129.407C111.343 129.311 111.405 129.226 111.482 129.157C111.558 129.087 111.647 129.035 111.744 129.003C111.845 128.982 111.95 128.986 112.05 129.014C112.15 129.042 112.243 129.094 112.322 129.165C112.475 129.287 112.605 129.438 112.705 129.61C112.807 129.793 112.842 130.009 112.802 130.217C112.747 130.405 112.654 130.577 112.529 130.723C112.404 130.868 112.25 130.983 112.079 131.058C112.356 130.847 112.553 130.537 112.634 130.186C112.649 130.023 112.613 129.859 112.532 129.718C112.44 129.576 112.325 129.452 112.192 129.353C112.139 129.299 112.076 129.257 112.006 129.232C111.937 129.207 111.862 129.199 111.789 129.209C111.644 129.26 111.521 129.364 111.442 129.502C111.259 129.815 111.12 130.154 111.027 130.508Z" fill="#C3F53C"/>
<path d="M105.36 127.669C105.338 128.052 105.236 128.426 105.061 128.762C105.014 128.857 104.95 128.94 104.872 129.008C104.794 129.075 104.703 129.125 104.606 129.154C104.504 129.172 104.399 129.165 104.3 129.134C104.201 129.103 104.109 129.049 104.032 128.976C103.882 128.85 103.756 128.695 103.66 128.52C103.563 128.335 103.533 128.118 103.579 127.911C103.638 127.725 103.735 127.555 103.864 127.413C103.992 127.271 104.149 127.161 104.322 127.09C104.04 127.294 103.835 127.598 103.745 127.946C103.727 128.11 103.759 128.275 103.836 128.417C103.924 128.562 104.036 128.689 104.167 128.792C104.218 128.848 104.28 128.891 104.349 128.918C104.418 128.944 104.492 128.954 104.566 128.947C104.712 128.9 104.838 128.799 104.92 128.663C105.11 128.355 105.258 128.021 105.36 127.669Z" fill="#C3F53C"/>
<path d="M108.685 134.009C108.78 133.745 108.914 133.497 109.081 133.276C109.166 133.158 109.268 133.056 109.384 132.972C109.45 132.92 109.528 132.886 109.609 132.872C109.691 132.859 109.775 132.867 109.853 132.895C109.991 132.978 110.096 133.113 110.145 133.272C110.194 133.409 110.226 133.552 110.238 133.698C110.271 133.979 110.259 134.264 110.203 134.541C110.174 134.268 110.13 133.997 110.071 133.73C110.043 133.602 110.006 133.477 109.96 133.356C109.907 133.249 109.844 133.133 109.764 133.108C109.613 133.021 109.378 133.218 109.206 133.396C109.023 133.591 108.849 133.796 108.685 134.009Z" fill="#C3F53C"/>
<path d="M102.661 121.089L100.784 123.27C100.784 123.27 100.797 126.059 99.4594 126.177C99.4594 126.177 98.7811 126.824 99.2643 126.956C99.6963 127.069 101.253 126.662 101.926 126.745C101.926 126.745 105.118 126.079 105.662 126.441C105.826 126.558 105.963 126.711 106.065 126.89C106.167 127.069 106.231 127.269 106.252 127.476L106.512 127.446L116.58 128.079L120.948 121.089L102.661 121.089ZM115.632 125.981L101.504 125.731L103.348 122.599H117.505L115.632 125.981Z" fill="#C3F53C"/>
<path d="M91.0815 126.178C91.6261 125.759 92.2418 125.455 92.8953 125.282C93.5594 125.102 94.2473 125.039 94.9309 125.096C94.9922 125.101 95.0491 125.132 95.0891 125.181C95.1291 125.231 95.1489 125.295 95.1443 125.359C95.1397 125.424 95.111 125.484 95.0644 125.527C95.0179 125.569 94.9573 125.59 94.896 125.586C94.8864 125.585 94.8768 125.584 94.8674 125.582C94.2329 125.45 93.5821 125.43 92.9413 125.522C92.2873 125.613 91.6558 125.835 91.0815 126.178Z" fill="#C3F53C"/>
<path d="M94.8997 131.241C96.2069 131.267 97.5139 131.315 98.8215 131.446C99.145 131.477 99.4833 131.532 99.7957 131.571C100.111 131.607 100.429 131.613 100.746 131.591C101.373 131.546 101.989 131.39 102.567 131.13L102.582 131.122C102.639 131.096 102.703 131.095 102.76 131.118C102.818 131.142 102.864 131.188 102.889 131.248C102.914 131.307 102.915 131.375 102.893 131.436C102.871 131.496 102.827 131.545 102.77 131.571L102.757 131.577C102.117 131.823 101.441 131.952 100.76 131.958C100.423 131.961 100.087 131.933 99.7553 131.874C99.4214 131.811 99.1171 131.741 98.7917 131.689C97.5056 131.478 96.2022 131.348 94.8997 131.241Z" fill="#C3F53C"/>
<path d="M95.907 135.045C96.3502 134.876 96.7981 134.719 97.2507 134.574C97.7085 134.422 98.1751 134.301 98.6478 134.213C98.7089 134.203 98.7714 134.218 98.8215 134.257C98.8717 134.295 98.9054 134.352 98.9153 134.417C98.9251 134.481 98.9103 134.547 98.8741 134.6C98.8379 134.653 98.7832 134.689 98.7222 134.699C98.7099 134.701 98.6974 134.702 98.685 134.702H98.6805C98.2183 134.708 97.7569 134.745 97.2993 134.814C96.8347 134.877 96.3701 134.955 95.907 135.045Z" fill="#C3F53C"/>
<path d="M97.6567 122.66C97.8946 122.92 98.1741 123.134 98.4825 123.292C98.795 123.444 99.1227 123.558 99.4595 123.633C99.2815 123.677 99.0975 123.687 98.9162 123.663C98.7325 123.637 98.5536 123.582 98.3852 123.501C98.2199 123.41 98.0693 123.293 97.9391 123.153C97.8089 123.015 97.7121 122.846 97.6567 122.66Z" fill="#C3F53C"/>
<path d="M104.749 131.327C104.626 131.328 104.507 131.277 104.42 131.185C104.332 131.094 104.283 130.969 104.282 130.839C104.281 130.709 104.33 130.585 104.417 130.492C104.503 130.4 104.621 130.348 104.744 130.347L110.63 130.289C110.691 130.287 110.752 130.298 110.809 130.322C110.867 130.345 110.919 130.381 110.962 130.426C111.006 130.471 111.041 130.525 111.064 130.585C111.088 130.645 111.099 130.709 111.099 130.774C111.099 130.838 111.088 130.902 111.065 130.962C111.042 131.022 111.009 131.076 110.966 131.122C110.923 131.168 110.872 131.205 110.816 131.23C110.76 131.255 110.7 131.268 110.638 131.269L104.753 131.327H104.749Z" fill="#C3F53C"/>
<path d="M120.921 131.168C120.798 131.168 120.68 131.117 120.593 131.025C120.505 130.933 120.456 130.808 120.456 130.678C120.456 130.548 120.505 130.424 120.592 130.332C120.679 130.24 120.797 130.188 120.921 130.188L137.144 130.165H137.145C137.268 130.165 137.386 130.217 137.473 130.309C137.56 130.401 137.609 130.525 137.609 130.655C137.61 130.785 137.561 130.91 137.474 131.002C137.387 131.094 137.268 131.146 137.145 131.146L120.922 131.168H120.921Z" fill="#C3F53C"/>
<path d="M228.623 131.017C228.5 131.017 228.382 130.966 228.295 130.874C228.208 130.782 228.159 130.657 228.158 130.527C228.158 130.397 228.207 130.272 228.294 130.18C228.381 130.088 228.5 130.037 228.623 130.037L243.535 130.018H243.535C243.658 130.018 243.776 130.069 243.864 130.161C243.951 130.253 244 130.377 244 130.507C244 130.637 243.951 130.762 243.864 130.854C243.777 130.946 243.659 130.998 243.536 130.998L228.624 131.017H228.623Z" fill="#C3F53C"/>
<path d="M143.694 130.764H142.591C142.562 130.764 142.534 130.752 142.513 130.731C142.492 130.709 142.479 130.679 142.479 130.648C142.479 130.633 142.482 130.618 142.487 130.604C142.492 130.59 142.5 130.577 142.51 130.566C142.52 130.555 142.532 130.547 142.546 130.541C142.559 130.535 142.573 130.532 142.588 130.532H143.694C143.709 130.532 143.723 130.535 143.737 130.54C143.75 130.546 143.762 130.555 143.773 130.566C143.783 130.576 143.791 130.589 143.797 130.603C143.802 130.618 143.805 130.633 143.805 130.648C143.805 130.663 143.802 130.679 143.797 130.693C143.791 130.707 143.783 130.72 143.773 130.731C143.762 130.741 143.75 130.75 143.737 130.756C143.723 130.762 143.709 130.764 143.694 130.764Z" fill="#C3F53C"/>
<path d="M0.46677 132.353C0.343548 132.354 0.225146 132.303 0.13761 132.211C0.0500744 132.12 0.00057676 131.995 5.00843e-06 131.865C-0.000566743 131.735 0.0478346 131.61 0.134562 131.518C0.221289 131.426 0.339238 131.373 0.46246 131.373L20.918 131.172C21.0402 131.174 21.1569 131.226 21.2442 131.316C21.3314 131.407 21.3825 131.529 21.3869 131.658C21.3875 131.722 21.3761 131.786 21.3533 131.846C21.3304 131.905 21.2967 131.96 21.2539 132.006C21.2112 132.052 21.1603 132.088 21.1041 132.113C21.048 132.139 20.9877 132.152 20.9266 132.153L0.47108 132.353H0.46677Z" fill="#C3F53C"/>
<path d="M77.6144 64.5076C77.7862 64.5013 77.949 64.4249 78.0685 64.2944C78.1879 64.164 78.2547 63.9897 78.2547 63.8083C78.2547 63.627 78.1879 63.4527 78.0685 63.3222C77.949 63.1918 77.7862 63.1154 77.6144 63.1091C77.4426 63.1154 77.2798 63.1918 77.1603 63.3222C77.0409 63.4527 76.9741 63.627 76.9741 63.8083C76.9741 63.9897 77.0409 64.164 77.1603 64.2944C77.2798 64.4249 77.4426 64.5013 77.6144 64.5076Z" fill="black"/>
<path d="M111.119 50.9454L105.693 51.1586C103.913 51.2155 102.153 51.261 100.402 51.2955C98.6548 51.3211 96.9131 51.3503 95.1785 51.3297C93.4431 51.3159 91.7079 51.2341 89.9552 51.183L90.2132 50.9108C90.1853 51.967 90.1399 53.0234 90.1264 54.0797C90.1019 55.136 90.101 56.1923 90.095 57.2487C90.0936 59.3613 90.1357 61.4739 90.1922 63.5865L89.9552 63.3364L94.2852 63.2096C94.3293 63.2082 94.3733 63.2161 94.4145 63.2329C94.4557 63.2496 94.4933 63.2749 94.5251 63.3071L94.5379 63.32L96.1916 64.9978H95.6231L97.2221 63.2625C97.2606 63.2205 97.3066 63.1871 97.3575 63.164C97.4084 63.141 97.4631 63.1289 97.5185 63.1283L97.5294 63.1282C99.7998 63.1085 102.07 63.0593 104.34 63.0637C105.476 63.0577 106.611 63.0626 107.746 63.0784L111.152 63.1239L110.713 63.5865C110.744 61.5277 110.801 59.4685 110.881 57.3668L111.119 50.9454ZM111.184 50.8761L111.422 57.1305C111.503 59.2541 111.559 61.4201 111.59 63.5865C111.592 63.7074 111.548 63.824 111.468 63.9108C111.389 63.9975 111.279 64.0473 111.165 64.0492H111.164L111.152 64.0493L107.746 64.0947C106.611 64.1091 105.476 64.114 104.34 64.1095C102.07 64.1139 99.7998 64.0647 97.5294 64.045L97.8366 63.9108L96.1917 65.5977L96.182 65.6077C96.1449 65.6457 96.101 65.6757 96.0529 65.6959C96.0048 65.7161 95.9534 65.7261 95.9016 65.7253C95.8498 65.7245 95.7987 65.713 95.7512 65.6914C95.7036 65.6698 95.6606 65.6385 95.6245 65.5993L95.623 65.5977L94.0326 63.8532L94.2852 63.9636L89.9552 63.8367L89.942 63.8364C89.8809 63.8346 89.823 63.8073 89.781 63.7604C89.739 63.7136 89.7163 63.6511 89.718 63.5866V63.5865C89.7746 61.474 89.8167 59.3613 89.8153 57.2487C89.8093 56.1923 89.8084 55.136 89.7839 54.0797C89.7704 53.0235 89.725 51.9671 89.6971 50.9108C89.6962 50.876 89.7018 50.8414 89.7135 50.809C89.7253 50.7765 89.743 50.7468 89.7656 50.7216C89.7883 50.6963 89.8154 50.676 89.8454 50.6618C89.8755 50.6477 89.908 50.6399 89.9409 50.6389H89.941L89.9552 50.6385C91.7353 50.5874 93.5327 50.5055 95.33 50.4918C97.1283 50.4712 98.9193 50.5004 100.704 50.526C102.487 50.5604 104.26 50.606 106.012 50.6629L111.184 50.8761Z" fill="#C3F53C"/>
<path d="M173.456 27.4978L165.47 27.6436L157.552 27.7489L141.825 27.8654L134.001 27.8364L126.181 27.732C120.964 27.6475 115.719 27.6072 110.477 27.6211L110.627 27.4632L110.655 33.8011L110.724 40.139L110.477 39.8788C115.097 39.8124 119.717 39.7496 124.336 39.7159L138.196 39.6352C142.816 39.5975 147.435 39.6408 152.055 39.6398C156.675 39.6338 161.295 39.6978 165.914 39.7368L165.921 39.7369C166.02 39.7378 166.114 39.7802 166.184 39.8547L167.792 41.5811H167.281L168.921 39.889L168.928 39.8827C168.958 39.8512 168.994 39.8265 169.034 39.8098C169.074 39.7931 169.116 39.7848 169.159 39.7854L173.489 39.8518L173.216 40.139C173.248 38.0589 173.274 35.9788 173.328 33.8709L173.456 27.4978ZM173.521 27.4285L173.649 33.731C173.703 35.8485 173.729 37.9938 173.761 40.139C173.762 40.214 173.735 40.2863 173.685 40.3401C173.636 40.394 173.568 40.4249 173.497 40.4261H173.497L173.488 40.4262L169.159 40.4926L169.395 40.3891L167.792 42.1193C167.725 42.1907 167.635 42.2314 167.54 42.2325C167.446 42.2336 167.355 42.195 167.287 42.1252L167.286 42.1246L167.281 42.1193L165.645 40.4234L165.914 40.5412C161.295 40.5802 156.675 40.6442 152.055 40.6382C147.435 40.6371 142.815 40.6805 138.196 40.6428L124.336 40.5621C119.717 40.5284 115.097 40.4655 110.477 40.3991H110.471C110.439 40.3987 110.407 40.3917 110.378 40.3784C110.349 40.3651 110.322 40.3458 110.3 40.3216C110.277 40.2975 110.26 40.2689 110.248 40.2376C110.236 40.2062 110.23 40.1727 110.23 40.139L110.3 33.801L110.327 27.4632C110.327 27.4213 110.343 27.3812 110.371 27.3515C110.399 27.3219 110.437 27.3052 110.477 27.3052C115.737 27.3192 120.995 27.2788 126.279 27.1943L134.212 27.09L142.141 27.0608L157.92 27.1774L165.754 27.2826L173.521 27.4285Z" fill="#C3F53C"/>
<path d="M129.703 0.447952C126.296 0.550265 122.947 0.621466 119.617 0.682735C116.28 0.75585 112.983 0.788518 109.687 0.81532C106.393 0.842606 103.12 0.820828 99.8403 0.743405C96.5589 0.68417 93.2625 0.587602 89.9548 0.570246L90.1035 0.413369C90.1022 1.46964 90.0879 2.52593 90.0991 3.58221L90.1174 6.75118C90.1198 8.86386 90.1687 10.9764 90.1979 13.0891L89.9548 12.8326L94.2848 12.747C94.3254 12.7461 94.3658 12.7538 94.4037 12.7694C94.4416 12.7851 94.4762 12.8085 94.5054 12.8383L94.5142 12.8473L96.1621 14.531H95.6517L97.2532 12.7983C97.2879 12.7607 97.3293 12.7307 97.375 12.7101C97.4207 12.6894 97.4699 12.6785 97.5196 12.6779L97.529 12.6778L105.581 12.604C108.265 12.5815 110.948 12.5608 113.632 12.5652C119 12.5626 124.368 12.6454 129.736 12.7208L129.386 13.0891L129.529 6.84141L129.703 0.447952ZM129.768 0.37867L129.942 6.66096L130.085 13.0891C130.087 13.1845 130.053 13.2769 129.991 13.3459C129.928 13.4149 129.842 13.455 129.752 13.4572L129.748 13.4573L129.736 13.4575C124.368 13.5328 119 13.6157 113.632 13.613C110.948 13.6176 108.265 13.5967 105.581 13.5744L97.529 13.5004L97.8045 13.38L96.1622 15.0696L96.1548 15.0771C96.0874 15.1465 95.9965 15.1848 95.9023 15.1836C95.8081 15.1824 95.7182 15.1417 95.6524 15.0705L95.6516 15.0696L94.0555 13.3311L94.2847 13.4312L89.9548 13.3457L89.9467 13.3456C89.9152 13.3451 89.8842 13.338 89.8554 13.3248C89.8266 13.3117 89.8005 13.2926 89.7786 13.2688C89.7568 13.245 89.7396 13.2169 89.7281 13.186C89.7166 13.1552 89.7109 13.1223 89.7115 13.0891C89.7407 10.9764 89.7896 8.86387 89.7921 6.75119L89.8104 3.58222C89.8215 2.52595 89.8073 1.46966 89.8059 0.413373C89.8059 0.371722 89.8216 0.331785 89.8495 0.302327C89.8774 0.27287 89.9153 0.256301 89.9548 0.256253C93.2772 0.238901 96.6109 0.14233 99.9597 0.0832282C103.31 0.00568689 106.668 -0.0159706 110.003 0.0111787C113.338 0.0381025 116.671 0.0707718 119.964 0.143887C123.264 0.205038 126.545 0.276358 129.768 0.378666V0.37867Z" fill="#C3F53C"/>
</svg>
