<svg width="81" height="80" viewBox="0 0 81 80" fill="none" xmlns="http://www.w3.org/2000/svg">
<g clip-path="url(#clip0_2014_1496)">
<mask id="mask0_2014_1496" style="mask-type:luminance" maskUnits="userSpaceOnUse" x="0" y="0" width="81" height="80">
<path d="M80.8333 0H0.833252V80H80.8333V0Z" fill="white"/>
</mask>
<g mask="url(#mask0_2014_1496)">
<path d="M40.8333 79.5C62.6485 79.5 80.3333 61.8152 80.3333 40C80.3333 18.1848 62.6485 0.5 40.8333 0.5C19.0181 0.5 1.33325 18.1848 1.33325 40C1.33325 61.8152 19.0181 79.5 40.8333 79.5Z" fill="#C3F53C"/>
<path d="M80.8333 39.7998V39.9998C80.8333 62.0998 62.9333 79.9998 40.8333 79.9998C23.6333 79.9998 8.93325 69.0998 3.33325 53.7998C12.3333 59.9998 23.2333 63.5998 35.0333 63.5998C53.9333 63.5998 70.7333 54.1998 80.8333 39.7998Z" fill="#63DE1F"/>
<path d="M40.8333 79.5C62.6485 79.5 80.3333 61.8152 80.3333 40C80.3333 18.1848 62.6485 0.5 40.8333 0.5C19.0181 0.5 1.33325 18.1848 1.33325 40C1.33325 61.8152 19.0181 79.5 40.8333 79.5Z" stroke="#002C15" stroke-miterlimit="10"/>
<path d="M35.9447 39.2423L39.1536 42.4513L46.4628 35.1421M53.8612 40.0446C53.8612 47.9777 45.2149 53.7716 42.006 55.6435C41.6495 55.8217 41.4712 56 41.2038 56C41.0255 56 40.7581 56 40.4907 56C40.2233 55.9109 40.045 55.8217 39.6885 55.6435C36.5687 53.7716 27.8333 47.9777 27.8333 40.0446V32.2897C27.8333 30.9526 27.8333 30.3287 28.0116 29.7939C28.1898 29.2591 28.5464 28.9025 28.9029 28.546C29.3486 28.1894 29.9726 27.922 31.1314 27.4763L39.8667 24.1783C40.2233 24.0891 40.4015 24 40.5798 24C40.7581 24 40.8472 24 41.0255 24C41.2038 24 41.382 24.0891 41.7386 24.1783L50.474 27.4763C51.7219 27.922 52.2567 28.1894 52.7024 28.546C53.0589 28.9025 53.4155 29.3482 53.5937 29.7939C53.772 30.3287 53.772 31.0418 53.772 32.2897V40.0446H53.8612Z" stroke="#002C15" stroke-width="2" stroke-linecap="round" stroke-linejoin="round"/>
</g>
</g>
<defs>
<clipPath id="clip0_2014_1496">
<rect width="80" height="80" fill="white" transform="translate(0.833252)"/>
</clipPath>
</defs>
</svg>
