<svg width="81" height="80" viewBox="0 0 81 80" fill="none" xmlns="http://www.w3.org/2000/svg">
<g clip-path="url(#clip0_2014_1483)">
<mask id="mask0_2014_1483" style="mask-type:luminance" maskUnits="userSpaceOnUse" x="0" y="0" width="81" height="80">
<path d="M80.5 0H0.5V80H80.5V0Z" fill="white"/>
</mask>
<g mask="url(#mask0_2014_1483)">
<path d="M40.5 79.5C62.3152 79.5 80 61.8152 80 40C80 18.1848 62.3152 0.5 40.5 0.5C18.6848 0.5 1 18.1848 1 40C1 61.8152 18.6848 79.5 40.5 79.5Z" fill="#C3F53C"/>
<path d="M80.5 39.7998V39.9998C80.5 62.0998 62.6 79.9998 40.5 79.9998C23.3 79.9998 8.6 69.0998 3 53.7998C12 59.9998 22.9 63.5998 34.7 63.5998C53.6 63.5998 70.4 54.1998 80.5 39.7998Z" fill="#63DE1F"/>
<path d="M40.5 79.5C62.3152 79.5 80 61.8152 80 40C80 18.1848 62.3152 0.5 40.5 0.5C18.6848 0.5 1 18.1848 1 40C1 61.8152 18.6848 79.5 40.5 79.5Z" stroke="#002C15" stroke-miterlimit="10"/>
<path d="M35.6842 49.1673H26.8966M31.6898 40.3797H24.5M35.6842 31.5921H27.6955M48.4661 26L37.9267 40.7552C37.4602 41.4082 37.227 41.7348 37.2371 42.007C37.2459 42.2441 37.3596 42.4649 37.5473 42.6098C37.763 42.7763 38.1643 42.7763 38.9668 42.7763H46.8684L45.2707 54.7594L55.8101 40.0042C56.2765 39.3511 56.5098 39.0246 56.4997 38.7523C56.4909 38.5153 56.3772 38.2944 56.1895 38.1495C55.9738 37.9831 55.5725 37.9831 54.7699 37.9831H46.8684L48.4661 26Z" stroke="#002C15" stroke-width="2" stroke-linecap="round" stroke-linejoin="round"/>
</g>
</g>
<defs>
<clipPath id="clip0_2014_1483">
<rect width="80" height="80" fill="white" transform="translate(0.5)"/>
</clipPath>
</defs>
</svg>
