<svg width="81" height="80" viewBox="0 0 81 80" fill="none" xmlns="http://www.w3.org/2000/svg">
<g clip-path="url(#clip0_2014_1509)">
<path d="M40.1665 79.5C61.9818 79.5 79.6665 61.8152 79.6665 40C79.6665 18.1848 61.9818 0.5 40.1665 0.5C18.3513 0.5 0.666504 18.1848 0.666504 40C0.666504 61.8152 18.3513 79.5 40.1665 79.5Z" fill="#C3F53C"/>
<path d="M80.1665 39.8V40C80.1665 62.1 62.2665 80 40.1665 80C22.9665 80 8.2665 69.1 2.6665 53.8C11.6665 60 22.5665 63.6 34.3665 63.6C53.2665 63.6 70.0665 54.2 80.1665 39.8Z" fill="#63DE1F"/>
<path d="M40.1665 79.5C61.9818 79.5 79.6665 61.8152 79.6665 40C79.6665 18.1848 61.9818 0.5 40.1665 0.5C18.3513 0.5 0.666504 18.1848 0.666504 40C0.666504 61.8152 18.3513 79.5 40.1665 79.5Z" stroke="#002C15" stroke-miterlimit="10"/>
<path d="M49.5985 44.2868L44.9654 36.2649L51.9655 32.2185L53.129 34.2417L55.84 38.9355C56.3251 39.671 56.5836 40.5328 56.5836 41.4139C56.5836 42.295 56.3251 43.1567 55.84 43.8923C55.4556 44.4992 55.1116 45.1264 54.7575 45.7435C53.837 47.3013 52.9367 48.8592 52.0161 50.4069C51.6678 51.0316 51.1564 51.5498 50.5363 51.9062C49.9162 52.2625 49.2109 52.4436 48.4958 52.4301C47.7371 52.4301 46.9683 52.4301 46.2096 52.4301H45.8656V56.0921H45.7949C45.4915 55.5559 45.1777 55.0805 44.8742 54.5039C43.748 52.5481 42.6219 50.6025 41.4957 48.667C41.4292 48.5779 41.3932 48.4696 41.3932 48.3585C41.3932 48.2473 41.4292 48.139 41.4957 48.0499C42.9018 45.6322 44.2876 43.2145 45.6836 40.7968L45.8656 40.5237V44.2666L49.5985 44.2868ZM46.6951 36.6999C46.691 36.7335 46.691 36.7674 46.6951 36.801L50.9337 44.1249C50.9746 44.1758 51.0253 44.218 51.0826 44.2493C51.1399 44.2805 51.2027 44.3001 51.2676 44.307C51.6924 44.307 52.1072 44.307 52.532 44.307C53.213 44.3252 53.8766 44.0901 54.3942 43.6472C54.9118 43.2043 55.2468 42.5852 55.3342 41.9096C55.4054 41.0682 55.1915 40.2274 54.7271 39.5222L51.6318 34.1709L51.4698 33.9281L46.6951 36.6999ZM53.5133 45.5007H44.9249V44.0744C44.0954 45.5209 43.3064 46.8664 42.5376 48.232C42.5109 48.2854 42.4969 48.3443 42.4969 48.404C42.4969 48.4637 42.5109 48.5225 42.5376 48.5759C43.2559 49.8404 43.9943 51.115 44.7327 52.3795L44.9249 52.6425V51.196H48.4756C48.9825 51.2085 49.4832 51.0823 49.9235 50.8309C50.3639 50.5795 50.7272 50.2125 50.9742 49.7696L51.6015 48.6973L53.5133 45.5007Z" fill="#002C15"/>
<path d="M42.0721 31.3182L40.2008 28.0609L35.5473 36.103L28.5573 32.0567L29.4778 30.4482L32.4115 25.3903C32.7151 24.7709 33.1595 24.2313 33.7094 23.815C34.2593 23.3986 34.8992 23.117 35.5777 22.9928C36.3099 22.9133 37.0471 22.8896 37.7829 22.922H44.1762C44.7927 22.9018 45.4053 23.0257 45.9655 23.2838C46.5257 23.542 47.018 23.9272 47.4032 24.409C47.7441 24.8722 48.0519 25.3589 48.3239 25.8657C48.5869 26.3108 48.8499 26.766 49.1129 27.2314L52.3601 25.37L52.2386 25.6533C50.8224 28.0811 49.413 30.5157 48.0102 32.957C47.9754 33.0338 47.918 33.0981 47.8457 33.1415C47.7734 33.1849 47.6898 33.2052 47.6057 33.1997H39.1892C39.0982 33.202 39.0091 33.1735 38.9363 33.1188L42.0721 31.3182ZM35.0719 34.353C35.0719 34.353 35.1327 34.353 35.1428 34.2923C36.559 31.8341 37.9853 29.386 39.3914 26.9279C39.4115 26.8834 39.4221 26.8351 39.4221 26.7863C39.4221 26.7374 39.4115 26.6891 39.3914 26.6446C39.1689 26.2198 38.9363 25.7949 38.6834 25.4004C38.4843 25.0511 38.2093 24.751 37.879 24.5219C37.5486 24.2928 37.1712 24.1406 36.7743 24.0766C36.3774 24.0126 35.9712 24.0382 35.5856 24.1518C35.2 24.2653 34.8447 24.4638 34.5459 24.7327C34.1425 25.0773 33.8004 25.4877 33.5343 25.9466C32.462 27.7473 31.4303 29.5681 30.3782 31.3789C30.3442 31.4481 30.3138 31.519 30.2871 31.5913L35.0719 34.353ZM48.4958 28.6273L46.7356 25.5622C46.5087 25.1361 46.1728 24.7777 45.7623 24.5236C45.3518 24.2695 44.8814 24.1287 44.3988 24.1157C42.76 24.1157 41.1213 24.1157 39.4826 24.1157C39.4489 24.1131 39.415 24.1131 39.3813 24.1157L43.6502 31.48L42.4262 32.1983H47.1401C47.2777 32.1676 47.3977 32.084 47.474 31.9656C48.0608 30.954 48.6373 29.9424 49.2139 28.9308L49.7602 27.9799L48.4958 28.6273Z" fill="#002C15"/>
<path d="M40.1095 52.3796H32.3203C31.4681 52.4187 30.6226 52.2128 29.8839 51.7861C29.1452 51.3593 28.5442 50.7298 28.1524 49.972C26.9284 47.7566 25.6437 45.5816 24.3994 43.3764C24.0233 42.7482 23.8247 42.0297 23.8247 41.2976C23.8247 40.5654 24.0233 39.8469 24.3994 39.2187L25.6842 36.9932L22.4167 35.1117H31.1773C31.2711 35.1031 31.365 35.1237 31.4465 35.1708C31.528 35.2179 31.5931 35.2892 31.6325 35.3747L35.8507 42.6885C35.8507 42.7492 35.9214 42.82 36.0125 42.9819L32.7248 41.0902L30.8434 44.3374H40.0994L40.1095 52.3796ZM38.8855 45.5715H30.3477C30.2823 45.5798 30.2194 45.6022 30.1635 45.6371C30.1076 45.6721 30.06 45.7187 30.0239 45.7739C29.7946 46.1448 29.5722 46.5292 29.3564 46.9271C29.0685 47.4302 28.9449 48.0106 29.003 48.5873C29.061 49.1641 29.2975 49.7083 29.6799 50.1439C29.9816 50.4689 30.3484 50.7269 30.7562 50.9011C31.164 51.0754 31.6037 51.1621 32.0471 51.1555C34.2726 51.1555 36.4881 51.1555 38.7035 51.1555H38.8855V45.5715ZM27.8694 47.0687C29.2148 44.5397 30.7119 42.122 32.1079 39.6436L33.2812 40.3113C33.2784 40.196 33.2435 40.0839 33.1802 39.9876C32.4721 38.7635 31.7639 37.5496 31.0659 36.3155C31.026 36.2282 30.9596 36.1557 30.876 36.1085C30.7924 36.0612 30.696 36.0416 30.6006 36.0525H25.9674L27.2117 36.7909C27.1409 36.9224 27.0904 37.0337 27.0297 37.1349C26.5036 38.0453 25.9674 38.9557 25.4515 39.8763C25.1744 40.3209 25.0275 40.8343 25.0275 41.3583C25.0275 41.8822 25.1744 42.3956 25.4515 42.8402C26.1394 44.0238 26.8071 45.2175 27.4747 46.401L27.8694 47.0687Z" fill="#002C15"/>
</g>
<defs>
<clipPath id="clip0_2014_1509">
<rect width="80" height="80" fill="white" transform="translate(0.166504)"/>
</clipPath>
</defs>
</svg>
