<svg width="16" height="16" viewBox="0 0 16 16" fill="none" xmlns="http://www.w3.org/2000/svg">
<rect width="16" height="16" rx="8" fill="white"/>
<path d="M6.05 10V3H8.78C9.39333 3 9.91667 3.09667 10.35 3.29C10.7833 3.48333 11.1167 3.76333 11.35 4.13C11.5833 4.49667 11.7 4.93333 11.7 5.44C11.7 5.94667 11.5833 6.38333 11.35 6.75C11.1167 7.11 10.7833 7.38667 10.35 7.58C9.91667 7.77333 9.39333 7.87 8.78 7.87H6.6L7.05 7.41V10H6.05ZM10.73 10L8.95 7.46H10.02L11.82 10H10.73ZM7.05 7.51L6.6 7.02H8.75C9.39 7.02 9.87333 6.88333 10.2 6.61C10.5333 6.33 10.7 5.94 10.7 5.44C10.7 4.94 10.5333 4.55333 10.2 4.28C9.87333 4.00667 9.39 3.87 8.75 3.87H6.6L7.05 3.37V7.51Z" fill="#002C15"/>
<path d="M7.18 12.08C6.64667 12.08 6.15333 11.9933 5.7 11.82C5.25333 11.64 4.86333 11.39 4.53 11.07C4.20333 10.7433 3.94667 10.3633 3.76 9.93C3.57333 9.49667 3.48 9.02 3.48 8.5C3.48 7.98 3.57333 7.50333 3.76 7.07C3.94667 6.63667 4.20667 6.26 4.54 5.94C4.87333 5.61333 5.26333 5.36333 5.71 5.19C6.16333 5.01 6.65667 4.92 7.19 4.92C7.73 4.92 8.22667 5.01333 8.68 5.2C9.14 5.38 9.53 5.65 9.85 6.01L9.2 6.64C8.93333 6.36 8.63333 6.15333 8.3 6.02C7.96667 5.88 7.61 5.81 7.23 5.81C6.83667 5.81 6.47 5.87667 6.13 6.01C5.79667 6.14333 5.50667 6.33 5.26 6.57C5.01333 6.81 4.82 7.09667 4.68 7.43C4.54667 7.75667 4.48 8.11333 4.48 8.5C4.48 8.88667 4.54667 9.24667 4.68 9.58C4.82 9.90667 5.01333 10.19 5.26 10.43C5.50667 10.67 5.79667 10.8567 6.13 10.99C6.47 11.1233 6.83667 11.19 7.23 11.19C7.61 11.19 7.96667 11.1233 8.3 10.99C8.63333 10.85 8.93333 10.6367 9.2 10.35L9.85 10.98C9.53 11.34 9.14 11.6133 8.68 11.8C8.22667 11.9867 7.72667 12.08 7.18 12.08Z" fill="#002C15"/>
</svg>
